<svg width="1440" height="487" fill="none" xmlns="http://www.w3.org/2000/svg"><g opacity=".25"><g opacity=".25"><path d="M0 467.358c34.286 0 34.286 12.642 68.573 12.642 34.286 0 34.286-12.642 68.559-12.642 34.273 0 34.286 12.642 68.573 12.642 34.286 0 34.286-12.642 68.572-12.642 34.287 0 34.287 12.642 68.56 12.642s34.286-12.642 68.572-12.642c34.287 0 34.287 12.642 68.573 12.642 34.286 0 34.286-12.642 68.573-12.642 34.286 0 34.273 12.642 68.559 12.642 34.286 0 34.286-12.642 68.573-12.642 34.286 0 34.286 12.642 68.559 12.642 34.273 0 34.286-12.642 68.573-12.642 34.286 0 34.286 12.642 68.586 12.642s34.273-12.642 68.559-12.642c34.287 0 34.3 12.642 68.586 12.642 34.29 0 34.29-12.642 68.56-12.642S1131.4 480 1165.68 480c34.29 0 34.29-12.642 68.59-12.642 34.3 0 34.28 12.642 68.57 12.642 34.29 0 34.29-12.642 68.57-12.642 34.29 0 34.3 12.642 68.59 12.642" fill="#000"/><path d="M0 467.358c34.286 0 34.286 12.642 68.573 12.642 34.286 0 34.286-12.642 68.559-12.642 34.273 0 34.286 12.642 68.573 12.642 34.286 0 34.286-12.642 68.572-12.642 34.287 0 34.287 12.642 68.56 12.642s34.286-12.642 68.572-12.642c34.287 0 34.287 12.642 68.573 12.642 34.286 0 34.286-12.642 68.573-12.642 34.286 0 34.273 12.642 68.559 12.642 34.286 0 34.286-12.642 68.573-12.642 34.286 0 34.286 12.642 68.559 12.642 34.273 0 34.286-12.642 68.573-12.642 34.286 0 34.286 12.642 68.586 12.642s34.273-12.642 68.559-12.642c34.287 0 34.3 12.642 68.586 12.642 34.29 0 34.29-12.642 68.56-12.642S1131.4 480 1165.68 480c34.29 0 34.29-12.642 68.59-12.642 34.3 0 34.28 12.642 68.57 12.642 34.29 0 34.29-12.642 68.57-12.642 34.29 0 34.3 12.642 68.59 12.642" stroke="#000" stroke-width="13" stroke-miterlimit="10"/></g><g opacity=".25"><path d="M0 456.824c34.286 0 34.286 12.642 68.573 12.642 34.286 0 34.286-12.642 68.559-12.642 34.273 0 34.286 12.642 68.573 12.642 34.286 0 34.286-12.642 68.572-12.642 34.287 0 34.287 12.642 68.56 12.642s34.286-12.642 68.572-12.642c34.287 0 34.287 12.642 68.573 12.642 34.286 0 34.286-12.642 68.573-12.642 34.286 0 34.273 12.642 68.559 12.642 34.286 0 34.286-12.642 68.573-12.642 34.286 0 34.286 12.642 68.559 12.642 34.273 0 34.286-12.642 68.573-12.642 34.286 0 34.286 12.642 68.586 12.642s34.273-12.642 68.559-12.642c34.287 0 34.3 12.642 68.586 12.642 34.29 0 34.29-12.642 68.56-12.642s34.29 12.642 68.57 12.642c34.29 0 34.29-12.642 68.59-12.642 34.3 0 34.28 12.642 68.57 12.642 34.29 0 34.29-12.642 68.57-12.642 34.29 0 34.3 12.642 68.59 12.642" fill="#000"/><path d="M0 456.824c34.286 0 34.286 12.642 68.573 12.642 34.286 0 34.286-12.642 68.559-12.642 34.273 0 34.286 12.642 68.573 12.642 34.286 0 34.286-12.642 68.572-12.642 34.287 0 34.287 12.642 68.56 12.642s34.286-12.642 68.572-12.642c34.287 0 34.287 12.642 68.573 12.642 34.286 0 34.286-12.642 68.573-12.642 34.286 0 34.273 12.642 68.559 12.642 34.286 0 34.286-12.642 68.573-12.642 34.286 0 34.286 12.642 68.559 12.642 34.273 0 34.286-12.642 68.573-12.642 34.286 0 34.286 12.642 68.586 12.642s34.273-12.642 68.559-12.642c34.287 0 34.3 12.642 68.586 12.642 34.29 0 34.29-12.642 68.56-12.642s34.29 12.642 68.57 12.642c34.29 0 34.29-12.642 68.59-12.642 34.3 0 34.28 12.642 68.57 12.642 34.29 0 34.29-12.642 68.57-12.642 34.29 0 34.3 12.642 68.59 12.642" stroke="#000" stroke-width="13" stroke-miterlimit="10"/></g><g opacity=".25"><path d="M0 446.29c34.286 0 34.286 12.641 68.573 12.641 34.286 0 34.286-12.641 68.559-12.641 34.273 0 34.286 12.641 68.573 12.641 34.286 0 34.286-12.641 68.572-12.641 34.287 0 34.287 12.641 68.56 12.641s34.286-12.641 68.572-12.641c34.287 0 34.287 12.641 68.573 12.641 34.286 0 34.286-12.641 68.573-12.641 34.286 0 34.273 12.641 68.559 12.641 34.286 0 34.286-12.641 68.573-12.641 34.286 0 34.286 12.641 68.559 12.641 34.273 0 34.286-12.641 68.573-12.641 34.286 0 34.286 12.641 68.586 12.641s34.273-12.641 68.559-12.641c34.287 0 34.3 12.641 68.586 12.641 34.29 0 34.29-12.641 68.56-12.641s34.29 12.641 68.57 12.641c34.29 0 34.29-12.641 68.59-12.641 34.3 0 34.28 12.641 68.57 12.641 34.29 0 34.29-12.641 68.57-12.641 34.29 0 34.3 12.641 68.59 12.641" fill="#000"/><path d="M0 446.29c34.286 0 34.286 12.641 68.573 12.641 34.286 0 34.286-12.641 68.559-12.641 34.273 0 34.286 12.641 68.573 12.641 34.286 0 34.286-12.641 68.572-12.641 34.287 0 34.287 12.641 68.56 12.641s34.286-12.641 68.572-12.641c34.287 0 34.287 12.641 68.573 12.641 34.286 0 34.286-12.641 68.573-12.641 34.286 0 34.273 12.641 68.559 12.641 34.286 0 34.286-12.641 68.573-12.641 34.286 0 34.286 12.641 68.559 12.641 34.273 0 34.286-12.641 68.573-12.641 34.286 0 34.286 12.641 68.586 12.641s34.273-12.641 68.559-12.641c34.287 0 34.3 12.641 68.586 12.641 34.29 0 34.29-12.641 68.56-12.641s34.29 12.641 68.57 12.641c34.29 0 34.29-12.641 68.59-12.641 34.3 0 34.28 12.641 68.57 12.641 34.29 0 34.29-12.641 68.57-12.641 34.29 0 34.3 12.641 68.59 12.641" stroke="#000" stroke-width="13" stroke-miterlimit="10"/></g><g opacity=".25"><path d="M0 435.755c34.286 0 34.286 12.641 68.573 12.641 34.286 0 34.286-12.641 68.559-12.641 34.273 0 34.286 12.641 68.573 12.641 34.286 0 34.286-12.641 68.572-12.641 34.287 0 34.287 12.641 68.56 12.641s34.286-12.641 68.572-12.641c34.287 0 34.287 12.641 68.573 12.641 34.286 0 34.286-12.641 68.573-12.641 34.286 0 34.273 12.641 68.559 12.641 34.286 0 34.286-12.641 68.573-12.641 34.286 0 34.286 12.641 68.559 12.641 34.273 0 34.286-12.641 68.573-12.641 34.286 0 34.286 12.641 68.586 12.641s34.273-12.641 68.559-12.641c34.287 0 34.3 12.641 68.586 12.641 34.29 0 34.29-12.641 68.56-12.641s34.29 12.641 68.57 12.641c34.29 0 34.29-12.641 68.59-12.641 34.3 0 34.28 12.641 68.57 12.641 34.29 0 34.29-12.641 68.57-12.641 34.29 0 34.3 12.641 68.59 12.641" fill="#000"/><path d="M0 435.755c34.286 0 34.286 12.641 68.573 12.641 34.286 0 34.286-12.641 68.559-12.641 34.273 0 34.286 12.641 68.573 12.641 34.286 0 34.286-12.641 68.572-12.641 34.287 0 34.287 12.641 68.56 12.641s34.286-12.641 68.572-12.641c34.287 0 34.287 12.641 68.573 12.641 34.286 0 34.286-12.641 68.573-12.641 34.286 0 34.273 12.641 68.559 12.641 34.286 0 34.286-12.641 68.573-12.641 34.286 0 34.286 12.641 68.559 12.641 34.273 0 34.286-12.641 68.573-12.641 34.286 0 34.286 12.641 68.586 12.641s34.273-12.641 68.559-12.641c34.287 0 34.3 12.641 68.586 12.641 34.29 0 34.29-12.641 68.56-12.641s34.29 12.641 68.57 12.641c34.29 0 34.29-12.641 68.59-12.641 34.3 0 34.28 12.641 68.57 12.641 34.29 0 34.29-12.641 68.57-12.641 34.29 0 34.3 12.641 68.59 12.641" stroke="#000" stroke-width="13" stroke-miterlimit="10"/></g><g opacity=".25"><path d="M0 426.274c34.286 0 34.286 12.641 68.573 12.641 34.286 0 34.286-12.641 68.559-12.641 34.273 0 34.286 12.641 68.573 12.641 34.286 0 34.286-12.641 68.572-12.641 34.287 0 34.287 12.641 68.56 12.641s34.286-12.641 68.572-12.641c34.287 0 34.287 12.641 68.573 12.641 34.286 0 34.286-12.641 68.573-12.641 34.286 0 34.273 12.641 68.559 12.641 34.286 0 34.286-12.641 68.573-12.641 34.286 0 34.286 12.641 68.559 12.641 34.273 0 34.286-12.641 68.573-12.641 34.286 0 34.286 12.641 68.586 12.641s34.273-12.641 68.559-12.641c34.287 0 34.3 12.641 68.586 12.641 34.29 0 34.29-12.641 68.56-12.641s34.29 12.641 68.57 12.641c34.29 0 34.29-12.641 68.59-12.641 34.3 0 34.28 12.641 68.57 12.641 34.29 0 34.29-12.641 68.57-12.641 34.29 0 34.3 12.641 68.59 12.641" fill="#000"/><path d="M0 426.274c34.286 0 34.286 12.641 68.573 12.641 34.286 0 34.286-12.641 68.559-12.641 34.273 0 34.286 12.641 68.573 12.641 34.286 0 34.286-12.641 68.572-12.641 34.287 0 34.287 12.641 68.56 12.641s34.286-12.641 68.572-12.641c34.287 0 34.287 12.641 68.573 12.641 34.286 0 34.286-12.641 68.573-12.641 34.286 0 34.273 12.641 68.559 12.641 34.286 0 34.286-12.641 68.573-12.641 34.286 0 34.286 12.641 68.559 12.641 34.273 0 34.286-12.641 68.573-12.641 34.286 0 34.286 12.641 68.586 12.641s34.273-12.641 68.559-12.641c34.287 0 34.3 12.641 68.586 12.641 34.29 0 34.29-12.641 68.56-12.641s34.29 12.641 68.57 12.641c34.29 0 34.29-12.641 68.59-12.641 34.3 0 34.28 12.641 68.57 12.641 34.29 0 34.29-12.641 68.57-12.641 34.29 0 34.3 12.641 68.59 12.641" stroke="#000" stroke-width="13" stroke-miterlimit="10"/></g><g opacity=".25"><path d="M0 415.739c34.286 0 34.286 12.642 68.573 12.642 34.286 0 34.286-12.642 68.559-12.642 34.273 0 34.286 12.642 68.573 12.642 34.286 0 34.286-12.642 68.572-12.642 34.287 0 34.287 12.642 68.56 12.642s34.286-12.642 68.572-12.642c34.287 0 34.287 12.642 68.573 12.642 34.286 0 34.286-12.642 68.573-12.642 34.286 0 34.273 12.642 68.559 12.642 34.286 0 34.286-12.642 68.573-12.642 34.286 0 34.286 12.642 68.559 12.642 34.273 0 34.286-12.642 68.573-12.642 34.286 0 34.286 12.642 68.586 12.642s34.273-12.642 68.559-12.642c34.287 0 34.3 12.642 68.586 12.642 34.29 0 34.29-12.642 68.56-12.642s34.29 12.642 68.57 12.642c34.29 0 34.29-12.642 68.59-12.642 34.3 0 34.28 12.642 68.57 12.642 34.29 0 34.29-12.642 68.57-12.642 34.29 0 34.3 12.642 68.59 12.642" fill="#000"/><path d="M0 415.739c34.286 0 34.286 12.642 68.573 12.642 34.286 0 34.286-12.642 68.559-12.642 34.273 0 34.286 12.642 68.573 12.642 34.286 0 34.286-12.642 68.572-12.642 34.287 0 34.287 12.642 68.56 12.642s34.286-12.642 68.572-12.642c34.287 0 34.287 12.642 68.573 12.642 34.286 0 34.286-12.642 68.573-12.642 34.286 0 34.273 12.642 68.559 12.642 34.286 0 34.286-12.642 68.573-12.642 34.286 0 34.286 12.642 68.559 12.642 34.273 0 34.286-12.642 68.573-12.642 34.286 0 34.286 12.642 68.586 12.642s34.273-12.642 68.559-12.642c34.287 0 34.3 12.642 68.586 12.642 34.29 0 34.29-12.642 68.56-12.642s34.29 12.642 68.57 12.642c34.29 0 34.29-12.642 68.59-12.642 34.3 0 34.28 12.642 68.57 12.642 34.29 0 34.29-12.642 68.57-12.642 34.29 0 34.3 12.642 68.59 12.642" stroke="#000" stroke-width="13" stroke-miterlimit="10"/></g><g opacity=".25"><path d="M0 405.205c34.286 0 34.286 12.642 68.573 12.642 34.286 0 34.286-12.642 68.559-12.642 34.273 0 34.286 12.642 68.573 12.642 34.286 0 34.286-12.642 68.572-12.642 34.287 0 34.287 12.642 68.56 12.642s34.286-12.642 68.572-12.642c34.287 0 34.287 12.642 68.573 12.642 34.286 0 34.286-12.642 68.573-12.642 34.286 0 34.273 12.642 68.559 12.642 34.286 0 34.286-12.642 68.573-12.642 34.286 0 34.286 12.642 68.559 12.642 34.273 0 34.286-12.642 68.573-12.642 34.286 0 34.286 12.642 68.586 12.642s34.273-12.642 68.559-12.642c34.287 0 34.3 12.642 68.586 12.642 34.29 0 34.29-12.642 68.56-12.642s34.29 12.642 68.57 12.642c34.29 0 34.29-12.642 68.59-12.642 34.3 0 34.28 12.642 68.57 12.642 34.29 0 34.29-12.642 68.57-12.642 34.29 0 34.3 12.642 68.59 12.642" fill="#000"/><path d="M0 405.205c34.286 0 34.286 12.642 68.573 12.642 34.286 0 34.286-12.642 68.559-12.642 34.273 0 34.286 12.642 68.573 12.642 34.286 0 34.286-12.642 68.572-12.642 34.287 0 34.287 12.642 68.56 12.642s34.286-12.642 68.572-12.642c34.287 0 34.287 12.642 68.573 12.642 34.286 0 34.286-12.642 68.573-12.642 34.286 0 34.273 12.642 68.559 12.642 34.286 0 34.286-12.642 68.573-12.642 34.286 0 34.286 12.642 68.559 12.642 34.273 0 34.286-12.642 68.573-12.642 34.286 0 34.286 12.642 68.586 12.642s34.273-12.642 68.559-12.642c34.287 0 34.3 12.642 68.586 12.642 34.29 0 34.29-12.642 68.56-12.642s34.29 12.642 68.57 12.642c34.29 0 34.29-12.642 68.59-12.642 34.3 0 34.28 12.642 68.57 12.642 34.29 0 34.29-12.642 68.57-12.642 34.29 0 34.3 12.642 68.59 12.642" stroke="#000" stroke-width="13" stroke-miterlimit="10"/></g><g opacity=".25"><path d="M0 394.67c34.286 0 34.286 12.642 68.573 12.642 34.286 0 34.286-12.642 68.559-12.642 34.273 0 34.286 12.642 68.573 12.642 34.286 0 34.286-12.642 68.572-12.642 34.287 0 34.287 12.642 68.56 12.642s34.286-12.642 68.572-12.642c34.287 0 34.287 12.642 68.573 12.642 34.286 0 34.286-12.642 68.573-12.642 34.286 0 34.273 12.642 68.559 12.642 34.286 0 34.286-12.642 68.573-12.642 34.286 0 34.286 12.642 68.559 12.642 34.273 0 34.286-12.642 68.573-12.642 34.286 0 34.286 12.642 68.586 12.642s34.273-12.642 68.559-12.642c34.287 0 34.3 12.642 68.586 12.642 34.29 0 34.29-12.642 68.56-12.642s34.29 12.642 68.57 12.642c34.29 0 34.29-12.642 68.59-12.642 34.3 0 34.28 12.642 68.57 12.642 34.29 0 34.29-12.642 68.57-12.642 34.29 0 34.3 12.642 68.59 12.642" fill="#000"/><path d="M0 394.67c34.286 0 34.286 12.642 68.573 12.642 34.286 0 34.286-12.642 68.559-12.642 34.273 0 34.286 12.642 68.573 12.642 34.286 0 34.286-12.642 68.572-12.642 34.287 0 34.287 12.642 68.56 12.642s34.286-12.642 68.572-12.642c34.287 0 34.287 12.642 68.573 12.642 34.286 0 34.286-12.642 68.573-12.642 34.286 0 34.273 12.642 68.559 12.642 34.286 0 34.286-12.642 68.573-12.642 34.286 0 34.286 12.642 68.559 12.642 34.273 0 34.286-12.642 68.573-12.642 34.286 0 34.286 12.642 68.586 12.642s34.273-12.642 68.559-12.642c34.287 0 34.3 12.642 68.586 12.642 34.29 0 34.29-12.642 68.56-12.642s34.29 12.642 68.57 12.642c34.29 0 34.29-12.642 68.59-12.642 34.3 0 34.28 12.642 68.57 12.642 34.29 0 34.29-12.642 68.57-12.642 34.29 0 34.3 12.642 68.59 12.642" stroke="#000" stroke-width="13" stroke-miterlimit="10"/></g><g opacity=".25"><path d="M0 384.136c34.286 0 34.286 12.641 68.573 12.641 34.286 0 34.286-12.641 68.559-12.641 34.273 0 34.286 12.641 68.573 12.641 34.286 0 34.286-12.641 68.572-12.641 34.287 0 34.287 12.641 68.56 12.641s34.286-12.641 68.572-12.641c34.287 0 34.287 12.641 68.573 12.641 34.286 0 34.286-12.641 68.573-12.641 34.286 0 34.273 12.641 68.559 12.641 34.286 0 34.286-12.641 68.573-12.641 34.286 0 34.286 12.641 68.559 12.641 34.273 0 34.286-12.641 68.573-12.641 34.286 0 34.286 12.641 68.586 12.641s34.273-12.641 68.559-12.641c34.287 0 34.3 12.641 68.586 12.641 34.29 0 34.29-12.641 68.56-12.641s34.29 12.641 68.57 12.641c34.29 0 34.29-12.641 68.59-12.641 34.3 0 34.28 12.641 68.57 12.641 34.29 0 34.29-12.641 68.57-12.641 34.29 0 34.3 12.641 68.59 12.641" fill="#000"/><path d="M0 384.136c34.286 0 34.286 12.641 68.573 12.641 34.286 0 34.286-12.641 68.559-12.641 34.273 0 34.286 12.641 68.573 12.641 34.286 0 34.286-12.641 68.572-12.641 34.287 0 34.287 12.641 68.56 12.641s34.286-12.641 68.572-12.641c34.287 0 34.287 12.641 68.573 12.641 34.286 0 34.286-12.641 68.573-12.641 34.286 0 34.273 12.641 68.559 12.641 34.286 0 34.286-12.641 68.573-12.641 34.286 0 34.286 12.641 68.559 12.641 34.273 0 34.286-12.641 68.573-12.641 34.286 0 34.286 12.641 68.586 12.641s34.273-12.641 68.559-12.641c34.287 0 34.3 12.641 68.586 12.641 34.29 0 34.29-12.641 68.56-12.641s34.29 12.641 68.57 12.641c34.29 0 34.29-12.641 68.59-12.641 34.3 0 34.28 12.641 68.57 12.641 34.29 0 34.29-12.641 68.57-12.641 34.29 0 34.3 12.641 68.59 12.641" stroke="#000" stroke-width="13" stroke-miterlimit="10"/></g><g opacity=".25"><path d="M0 373.602c34.286 0 34.286 12.641 68.573 12.641 34.286 0 34.286-12.641 68.559-12.641 34.273 0 34.286 12.641 68.573 12.641 34.286 0 34.286-12.641 68.572-12.641 34.287 0 34.287 12.641 68.56 12.641s34.286-12.641 68.572-12.641c34.287 0 34.287 12.641 68.573 12.641 34.286 0 34.286-12.641 68.573-12.641 34.286 0 34.273 12.641 68.559 12.641 34.286 0 34.286-12.641 68.573-12.641 34.286 0 34.286 12.641 68.559 12.641 34.273 0 34.286-12.641 68.573-12.641 34.286 0 34.286 12.641 68.586 12.641s34.273-12.641 68.559-12.641c34.287 0 34.3 12.641 68.586 12.641 34.29 0 34.29-12.641 68.56-12.641s34.29 12.641 68.57 12.641c34.29 0 34.29-12.641 68.59-12.641 34.3 0 34.28 12.641 68.57 12.641 34.29 0 34.29-12.641 68.57-12.641 34.29 0 34.3 12.641 68.59 12.641" fill="#000"/><path d="M0 373.602c34.286 0 34.286 12.641 68.573 12.641 34.286 0 34.286-12.641 68.559-12.641 34.273 0 34.286 12.641 68.573 12.641 34.286 0 34.286-12.641 68.572-12.641 34.287 0 34.287 12.641 68.56 12.641s34.286-12.641 68.572-12.641c34.287 0 34.287 12.641 68.573 12.641 34.286 0 34.286-12.641 68.573-12.641 34.286 0 34.273 12.641 68.559 12.641 34.286 0 34.286-12.641 68.573-12.641 34.286 0 34.286 12.641 68.559 12.641 34.273 0 34.286-12.641 68.573-12.641 34.286 0 34.286 12.641 68.586 12.641s34.273-12.641 68.559-12.641c34.287 0 34.3 12.641 68.586 12.641 34.29 0 34.29-12.641 68.56-12.641s34.29 12.641 68.57 12.641c34.29 0 34.29-12.641 68.59-12.641 34.3 0 34.28 12.641 68.57 12.641 34.29 0 34.29-12.641 68.57-12.641 34.29 0 34.3 12.641 68.59 12.641" stroke="#000" stroke-width="13" stroke-miterlimit="10"/></g><g opacity=".25"><path d="M0 363.067c34.286 0 34.286 12.641 68.573 12.641 34.286 0 34.286-12.641 68.559-12.641 34.273 0 34.286 12.641 68.573 12.641 34.286 0 34.286-12.641 68.572-12.641 34.287 0 34.287 12.641 68.56 12.641s34.286-12.641 68.572-12.641c34.287 0 34.287 12.641 68.573 12.641 34.286 0 34.286-12.641 68.573-12.641 34.286 0 34.273 12.641 68.559 12.641 34.286 0 34.286-12.641 68.573-12.641 34.286 0 34.286 12.641 68.559 12.641 34.273 0 34.286-12.641 68.573-12.641 34.286 0 34.286 12.641 68.586 12.641s34.273-12.641 68.559-12.641c34.287 0 34.3 12.641 68.586 12.641 34.29 0 34.29-12.641 68.56-12.641s34.29 12.641 68.57 12.641c34.29 0 34.29-12.641 68.59-12.641 34.3 0 34.28 12.641 68.57 12.641 34.29 0 34.29-12.641 68.57-12.641 34.29 0 34.3 12.641 68.59 12.641" fill="#000"/><path d="M0 363.067c34.286 0 34.286 12.641 68.573 12.641 34.286 0 34.286-12.641 68.559-12.641 34.273 0 34.286 12.641 68.573 12.641 34.286 0 34.286-12.641 68.572-12.641 34.287 0 34.287 12.641 68.56 12.641s34.286-12.641 68.572-12.641c34.287 0 34.287 12.641 68.573 12.641 34.286 0 34.286-12.641 68.573-12.641 34.286 0 34.273 12.641 68.559 12.641 34.286 0 34.286-12.641 68.573-12.641 34.286 0 34.286 12.641 68.559 12.641 34.273 0 34.286-12.641 68.573-12.641 34.286 0 34.286 12.641 68.586 12.641s34.273-12.641 68.559-12.641c34.287 0 34.3 12.641 68.586 12.641 34.29 0 34.29-12.641 68.56-12.641s34.29 12.641 68.57 12.641c34.29 0 34.29-12.641 68.59-12.641 34.3 0 34.28 12.641 68.57 12.641 34.29 0 34.29-12.641 68.57-12.641 34.29 0 34.3 12.641 68.59 12.641" stroke="#000" stroke-width="13" stroke-miterlimit="10"/></g><g opacity=".25"><path d="M0 352.532c34.286 0 34.286 12.642 68.573 12.642 34.286 0 34.286-12.642 68.559-12.642 34.273 0 34.286 12.642 68.573 12.642 34.286 0 34.286-12.642 68.572-12.642 34.287 0 34.287 12.642 68.56 12.642s34.286-12.642 68.572-12.642c34.287 0 34.287 12.642 68.573 12.642 34.286 0 34.286-12.642 68.573-12.642 34.286 0 34.273 12.642 68.559 12.642 34.286 0 34.286-12.642 68.573-12.642 34.286 0 34.286 12.642 68.559 12.642 34.273 0 34.286-12.642 68.573-12.642 34.286 0 34.286 12.642 68.586 12.642s34.273-12.642 68.559-12.642c34.287 0 34.3 12.642 68.586 12.642 34.29 0 34.29-12.642 68.56-12.642s34.29 12.642 68.57 12.642c34.29 0 34.29-12.642 68.59-12.642 34.3 0 34.28 12.642 68.57 12.642 34.29 0 34.29-12.642 68.57-12.642 34.29 0 34.3 12.642 68.59 12.642" fill="#000"/><path d="M0 352.532c34.286 0 34.286 12.642 68.573 12.642 34.286 0 34.286-12.642 68.559-12.642 34.273 0 34.286 12.642 68.573 12.642 34.286 0 34.286-12.642 68.572-12.642 34.287 0 34.287 12.642 68.56 12.642s34.286-12.642 68.572-12.642c34.287 0 34.287 12.642 68.573 12.642 34.286 0 34.286-12.642 68.573-12.642 34.286 0 34.273 12.642 68.559 12.642 34.286 0 34.286-12.642 68.573-12.642 34.286 0 34.286 12.642 68.559 12.642 34.273 0 34.286-12.642 68.573-12.642 34.286 0 34.286 12.642 68.586 12.642s34.273-12.642 68.559-12.642c34.287 0 34.3 12.642 68.586 12.642 34.29 0 34.29-12.642 68.56-12.642s34.29 12.642 68.57 12.642c34.29 0 34.29-12.642 68.59-12.642 34.3 0 34.28 12.642 68.57 12.642 34.29 0 34.29-12.642 68.57-12.642 34.29 0 34.3 12.642 68.59 12.642" stroke="#000" stroke-width="13" stroke-miterlimit="10"/></g><g opacity=".25"><path d="M0 341.998c34.286 0 34.286 12.641 68.573 12.641 34.286 0 34.286-12.641 68.559-12.641 34.273 0 34.286 12.641 68.573 12.641 34.286 0 34.286-12.641 68.572-12.641 34.287 0 34.287 12.641 68.56 12.641s34.286-12.641 68.572-12.641c34.287 0 34.287 12.641 68.573 12.641 34.286 0 34.286-12.641 68.573-12.641 34.286 0 34.273 12.641 68.559 12.641 34.286 0 34.286-12.641 68.573-12.641 34.286 0 34.286 12.641 68.559 12.641 34.273 0 34.286-12.641 68.573-12.641 34.286 0 34.286 12.641 68.586 12.641s34.273-12.641 68.559-12.641c34.287 0 34.3 12.641 68.586 12.641 34.29 0 34.29-12.641 68.56-12.641s34.29 12.641 68.57 12.641c34.29 0 34.29-12.641 68.59-12.641 34.3 0 34.28 12.641 68.57 12.641 34.29 0 34.29-12.641 68.57-12.641 34.29 0 34.3 12.641 68.59 12.641" fill="#000"/><path d="M0 341.998c34.286 0 34.286 12.641 68.573 12.641 34.286 0 34.286-12.641 68.559-12.641 34.273 0 34.286 12.641 68.573 12.641 34.286 0 34.286-12.641 68.572-12.641 34.287 0 34.287 12.641 68.56 12.641s34.286-12.641 68.572-12.641c34.287 0 34.287 12.641 68.573 12.641 34.286 0 34.286-12.641 68.573-12.641 34.286 0 34.273 12.641 68.559 12.641 34.286 0 34.286-12.641 68.573-12.641 34.286 0 34.286 12.641 68.559 12.641 34.273 0 34.286-12.641 68.573-12.641 34.286 0 34.286 12.641 68.586 12.641s34.273-12.641 68.559-12.641c34.287 0 34.3 12.641 68.586 12.641 34.29 0 34.29-12.641 68.56-12.641s34.29 12.641 68.57 12.641c34.29 0 34.29-12.641 68.59-12.641 34.3 0 34.28 12.641 68.57 12.641 34.29 0 34.29-12.641 68.57-12.641 34.29 0 34.3 12.641 68.59 12.641" stroke="#000" stroke-width="13" stroke-miterlimit="10"/></g><g opacity=".25"><path d="M0 331.463c34.286 0 34.286 12.642 68.573 12.642 34.286 0 34.286-12.642 68.559-12.642 34.273 0 34.286 12.642 68.573 12.642 34.286 0 34.286-12.642 68.572-12.642 34.287 0 34.287 12.642 68.56 12.642s34.286-12.642 68.572-12.642c34.287 0 34.287 12.642 68.573 12.642 34.286 0 34.286-12.642 68.573-12.642 34.286 0 34.273 12.642 68.559 12.642 34.286 0 34.286-12.642 68.573-12.642 34.286 0 34.286 12.642 68.559 12.642 34.273 0 34.286-12.642 68.573-12.642 34.286 0 34.286 12.642 68.586 12.642s34.273-12.642 68.559-12.642c34.287 0 34.3 12.642 68.586 12.642 34.29 0 34.29-12.642 68.56-12.642s34.29 12.642 68.57 12.642c34.29 0 34.29-12.642 68.59-12.642 34.3 0 34.28 12.642 68.57 12.642 34.29 0 34.29-12.642 68.57-12.642 34.29 0 34.3 12.642 68.59 12.642" fill="#000"/><path d="M0 331.463c34.286 0 34.286 12.642 68.573 12.642 34.286 0 34.286-12.642 68.559-12.642 34.273 0 34.286 12.642 68.573 12.642 34.286 0 34.286-12.642 68.572-12.642 34.287 0 34.287 12.642 68.56 12.642s34.286-12.642 68.572-12.642c34.287 0 34.287 12.642 68.573 12.642 34.286 0 34.286-12.642 68.573-12.642 34.286 0 34.273 12.642 68.559 12.642 34.286 0 34.286-12.642 68.573-12.642 34.286 0 34.286 12.642 68.559 12.642 34.273 0 34.286-12.642 68.573-12.642 34.286 0 34.286 12.642 68.586 12.642s34.273-12.642 68.559-12.642c34.287 0 34.3 12.642 68.586 12.642 34.29 0 34.29-12.642 68.56-12.642s34.29 12.642 68.57 12.642c34.29 0 34.29-12.642 68.59-12.642 34.3 0 34.28 12.642 68.57 12.642 34.29 0 34.29-12.642 68.57-12.642 34.29 0 34.3 12.642 68.59 12.642" stroke="#000" stroke-width="13" stroke-miterlimit="10"/></g><g opacity=".25"><path d="M0 320.929c34.286 0 34.286 12.641 68.573 12.641 34.286 0 34.286-12.641 68.559-12.641 34.273 0 34.286 12.641 68.573 12.641 34.286 0 34.286-12.641 68.572-12.641 34.287 0 34.287 12.641 68.56 12.641s34.286-12.641 68.572-12.641c34.287 0 34.287 12.641 68.573 12.641 34.286 0 34.286-12.641 68.573-12.641 34.286 0 34.273 12.641 68.559 12.641 34.286 0 34.286-12.641 68.573-12.641 34.286 0 34.286 12.641 68.559 12.641 34.273 0 34.286-12.641 68.573-12.641 34.286 0 34.286 12.641 68.586 12.641s34.273-12.641 68.559-12.641c34.287 0 34.3 12.641 68.586 12.641 34.29 0 34.29-12.641 68.56-12.641s34.29 12.641 68.57 12.641c34.29 0 34.29-12.641 68.59-12.641 34.3 0 34.28 12.641 68.57 12.641 34.29 0 34.29-12.641 68.57-12.641 34.29 0 34.3 12.641 68.59 12.641" fill="#000"/><path d="M0 320.929c34.286 0 34.286 12.641 68.573 12.641 34.286 0 34.286-12.641 68.559-12.641 34.273 0 34.286 12.641 68.573 12.641 34.286 0 34.286-12.641 68.572-12.641 34.287 0 34.287 12.641 68.56 12.641s34.286-12.641 68.572-12.641c34.287 0 34.287 12.641 68.573 12.641 34.286 0 34.286-12.641 68.573-12.641 34.286 0 34.273 12.641 68.559 12.641 34.286 0 34.286-12.641 68.573-12.641 34.286 0 34.286 12.641 68.559 12.641 34.273 0 34.286-12.641 68.573-12.641 34.286 0 34.286 12.641 68.586 12.641s34.273-12.641 68.559-12.641c34.287 0 34.3 12.641 68.586 12.641 34.29 0 34.29-12.641 68.56-12.641s34.29 12.641 68.57 12.641c34.29 0 34.29-12.641 68.59-12.641 34.3 0 34.28 12.641 68.57 12.641 34.29 0 34.29-12.641 68.57-12.641 34.29 0 34.3 12.641 68.59 12.641" stroke="#000" stroke-width="13" stroke-miterlimit="10"/></g><g opacity=".25"><path d="M0 310.394c34.286 0 34.286 12.641 68.573 12.641 34.286 0 34.286-12.641 68.559-12.641 34.273 0 34.286 12.641 68.573 12.641 34.286 0 34.286-12.641 68.572-12.641 34.287 0 34.287 12.641 68.56 12.641s34.286-12.641 68.572-12.641c34.287 0 34.287 12.641 68.573 12.641 34.286 0 34.286-12.641 68.573-12.641 34.286 0 34.273 12.641 68.559 12.641 34.286 0 34.286-12.641 68.573-12.641 34.286 0 34.286 12.641 68.559 12.641 34.273 0 34.286-12.641 68.573-12.641 34.286 0 34.286 12.641 68.586 12.641s34.273-12.641 68.559-12.641c34.287 0 34.3 12.641 68.586 12.641 34.29 0 34.29-12.641 68.56-12.641s34.29 12.641 68.57 12.641c34.29 0 34.29-12.641 68.59-12.641 34.3 0 34.28 12.641 68.57 12.641 34.29 0 34.29-12.641 68.57-12.641 34.29 0 34.3 12.641 68.59 12.641" fill="#000"/><path d="M0 310.394c34.286 0 34.286 12.641 68.573 12.641 34.286 0 34.286-12.641 68.559-12.641 34.273 0 34.286 12.641 68.573 12.641 34.286 0 34.286-12.641 68.572-12.641 34.287 0 34.287 12.641 68.56 12.641s34.286-12.641 68.572-12.641c34.287 0 34.287 12.641 68.573 12.641 34.286 0 34.286-12.641 68.573-12.641 34.286 0 34.273 12.641 68.559 12.641 34.286 0 34.286-12.641 68.573-12.641 34.286 0 34.286 12.641 68.559 12.641 34.273 0 34.286-12.641 68.573-12.641 34.286 0 34.286 12.641 68.586 12.641s34.273-12.641 68.559-12.641c34.287 0 34.3 12.641 68.586 12.641 34.29 0 34.29-12.641 68.56-12.641s34.29 12.641 68.57 12.641c34.29 0 34.29-12.641 68.59-12.641 34.3 0 34.28 12.641 68.57 12.641 34.29 0 34.29-12.641 68.57-12.641 34.29 0 34.3 12.641 68.59 12.641" stroke="#000" stroke-width="13" stroke-miterlimit="10"/></g><g opacity=".25"><path d="M0 299.86c34.286 0 34.286 12.641 68.573 12.641 34.286 0 34.286-12.641 68.559-12.641 34.273 0 34.286 12.641 68.573 12.641 34.286 0 34.286-12.641 68.572-12.641 34.287 0 34.287 12.641 68.56 12.641s34.286-12.641 68.572-12.641c34.287 0 34.287 12.641 68.573 12.641 34.286 0 34.286-12.641 68.573-12.641 34.286 0 34.273 12.641 68.559 12.641 34.286 0 34.286-12.641 68.573-12.641 34.286 0 34.286 12.641 68.559 12.641 34.273 0 34.286-12.641 68.573-12.641 34.286 0 34.286 12.641 68.586 12.641s34.273-12.641 68.559-12.641c34.287 0 34.3 12.641 68.586 12.641 34.29 0 34.29-12.641 68.56-12.641s34.29 12.641 68.57 12.641c34.29 0 34.29-12.641 68.59-12.641 34.3 0 34.28 12.641 68.57 12.641 34.29 0 34.29-12.641 68.57-12.641 34.29 0 34.3 12.641 68.59 12.641" fill="#000"/><path d="M0 299.86c34.286 0 34.286 12.641 68.573 12.641 34.286 0 34.286-12.641 68.559-12.641 34.273 0 34.286 12.641 68.573 12.641 34.286 0 34.286-12.641 68.572-12.641 34.287 0 34.287 12.641 68.56 12.641s34.286-12.641 68.572-12.641c34.287 0 34.287 12.641 68.573 12.641 34.286 0 34.286-12.641 68.573-12.641 34.286 0 34.273 12.641 68.559 12.641 34.286 0 34.286-12.641 68.573-12.641 34.286 0 34.286 12.641 68.559 12.641 34.273 0 34.286-12.641 68.573-12.641 34.286 0 34.286 12.641 68.586 12.641s34.273-12.641 68.559-12.641c34.287 0 34.3 12.641 68.586 12.641 34.29 0 34.29-12.641 68.56-12.641s34.29 12.641 68.57 12.641c34.29 0 34.29-12.641 68.59-12.641 34.3 0 34.28 12.641 68.57 12.641 34.29 0 34.29-12.641 68.57-12.641 34.29 0 34.3 12.641 68.59 12.641" stroke="#000" stroke-width="13" stroke-miterlimit="10"/></g><g opacity=".25"><path d="M0 289.325c34.286 0 34.286 12.642 68.573 12.642 34.286 0 34.286-12.642 68.559-12.642 34.273 0 34.286 12.642 68.573 12.642 34.286 0 34.286-12.642 68.572-12.642 34.287 0 34.287 12.642 68.56 12.642s34.286-12.642 68.572-12.642c34.287 0 34.287 12.642 68.573 12.642 34.286 0 34.286-12.642 68.573-12.642 34.286 0 34.273 12.642 68.559 12.642 34.286 0 34.286-12.642 68.573-12.642 34.286 0 34.286 12.642 68.559 12.642 34.273 0 34.286-12.642 68.573-12.642 34.286 0 34.286 12.642 68.586 12.642s34.273-12.642 68.559-12.642c34.287 0 34.3 12.642 68.586 12.642 34.29 0 34.29-12.642 68.56-12.642s34.29 12.642 68.57 12.642c34.29 0 34.29-12.642 68.59-12.642 34.3 0 34.28 12.642 68.57 12.642 34.29 0 34.29-12.642 68.57-12.642 34.29 0 34.3 12.642 68.59 12.642" fill="#000"/><path d="M0 289.325c34.286 0 34.286 12.642 68.573 12.642 34.286 0 34.286-12.642 68.559-12.642 34.273 0 34.286 12.642 68.573 12.642 34.286 0 34.286-12.642 68.572-12.642 34.287 0 34.287 12.642 68.56 12.642s34.286-12.642 68.572-12.642c34.287 0 34.287 12.642 68.573 12.642 34.286 0 34.286-12.642 68.573-12.642 34.286 0 34.273 12.642 68.559 12.642 34.286 0 34.286-12.642 68.573-12.642 34.286 0 34.286 12.642 68.559 12.642 34.273 0 34.286-12.642 68.573-12.642 34.286 0 34.286 12.642 68.586 12.642s34.273-12.642 68.559-12.642c34.287 0 34.3 12.642 68.586 12.642 34.29 0 34.29-12.642 68.56-12.642s34.29 12.642 68.57 12.642c34.29 0 34.29-12.642 68.59-12.642 34.3 0 34.28 12.642 68.57 12.642 34.29 0 34.29-12.642 68.57-12.642 34.29 0 34.3 12.642 68.59 12.642" stroke="#000" stroke-width="13" stroke-miterlimit="10"/></g><g opacity=".25"><path d="M0 279.844c34.286 0 34.286 12.642 68.573 12.642 34.286 0 34.286-12.642 68.559-12.642 34.273 0 34.286 12.642 68.573 12.642 34.286 0 34.286-12.642 68.572-12.642 34.287 0 34.287 12.642 68.56 12.642s34.286-12.642 68.572-12.642c34.287 0 34.287 12.642 68.573 12.642 34.286 0 34.286-12.642 68.573-12.642 34.286 0 34.273 12.642 68.559 12.642 34.286 0 34.286-12.642 68.573-12.642 34.286 0 34.286 12.642 68.559 12.642 34.273 0 34.286-12.642 68.573-12.642 34.286 0 34.286 12.642 68.586 12.642s34.273-12.642 68.559-12.642c34.287 0 34.3 12.642 68.586 12.642 34.29 0 34.29-12.642 68.56-12.642s34.29 12.642 68.57 12.642c34.29 0 34.29-12.642 68.59-12.642 34.3 0 34.28 12.642 68.57 12.642 34.29 0 34.29-12.642 68.57-12.642 34.29 0 34.3 12.642 68.59 12.642" fill="#000"/><path d="M0 279.844c34.286 0 34.286 12.642 68.573 12.642 34.286 0 34.286-12.642 68.559-12.642 34.273 0 34.286 12.642 68.573 12.642 34.286 0 34.286-12.642 68.572-12.642 34.287 0 34.287 12.642 68.56 12.642s34.286-12.642 68.572-12.642c34.287 0 34.287 12.642 68.573 12.642 34.286 0 34.286-12.642 68.573-12.642 34.286 0 34.273 12.642 68.559 12.642 34.286 0 34.286-12.642 68.573-12.642 34.286 0 34.286 12.642 68.559 12.642 34.273 0 34.286-12.642 68.573-12.642 34.286 0 34.286 12.642 68.586 12.642s34.273-12.642 68.559-12.642c34.287 0 34.3 12.642 68.586 12.642 34.29 0 34.29-12.642 68.56-12.642s34.29 12.642 68.57 12.642c34.29 0 34.29-12.642 68.59-12.642 34.3 0 34.28 12.642 68.57 12.642 34.29 0 34.29-12.642 68.57-12.642 34.29 0 34.3 12.642 68.59 12.642" stroke="#000" stroke-width="13" stroke-miterlimit="10"/></g><g opacity=".25"><path d="M0 269.31c34.286 0 34.286 12.641 68.573 12.641 34.286 0 34.286-12.641 68.559-12.641 34.273 0 34.286 12.641 68.573 12.641 34.286 0 34.286-12.641 68.572-12.641 34.287 0 34.287 12.641 68.56 12.641s34.286-12.641 68.572-12.641c34.287 0 34.287 12.641 68.573 12.641 34.286 0 34.286-12.641 68.573-12.641 34.286 0 34.273 12.641 68.559 12.641 34.286 0 34.286-12.641 68.573-12.641 34.286 0 34.286 12.641 68.559 12.641 34.273 0 34.286-12.641 68.573-12.641 34.286 0 34.286 12.641 68.586 12.641s34.273-12.641 68.559-12.641c34.287 0 34.3 12.641 68.586 12.641 34.29 0 34.29-12.641 68.56-12.641s34.29 12.641 68.57 12.641c34.29 0 34.29-12.641 68.59-12.641 34.3 0 34.28 12.641 68.57 12.641 34.29 0 34.29-12.641 68.57-12.641 34.29 0 34.3 12.641 68.59 12.641" fill="#000"/><path d="M0 269.31c34.286 0 34.286 12.641 68.573 12.641 34.286 0 34.286-12.641 68.559-12.641 34.273 0 34.286 12.641 68.573 12.641 34.286 0 34.286-12.641 68.572-12.641 34.287 0 34.287 12.641 68.56 12.641s34.286-12.641 68.572-12.641c34.287 0 34.287 12.641 68.573 12.641 34.286 0 34.286-12.641 68.573-12.641 34.286 0 34.273 12.641 68.559 12.641 34.286 0 34.286-12.641 68.573-12.641 34.286 0 34.286 12.641 68.559 12.641 34.273 0 34.286-12.641 68.573-12.641 34.286 0 34.286 12.641 68.586 12.641s34.273-12.641 68.559-12.641c34.287 0 34.3 12.641 68.586 12.641 34.29 0 34.29-12.641 68.56-12.641s34.29 12.641 68.57 12.641c34.29 0 34.29-12.641 68.59-12.641 34.3 0 34.28 12.641 68.57 12.641 34.29 0 34.29-12.641 68.57-12.641 34.29 0 34.3 12.641 68.59 12.641" stroke="#000" stroke-width="13" stroke-miterlimit="10"/></g><g opacity=".25"><path d="M0 258.775c34.286 0 34.286 12.641 68.573 12.641 34.286 0 34.286-12.641 68.559-12.641 34.273 0 34.286 12.641 68.573 12.641 34.286 0 34.286-12.641 68.572-12.641 34.287 0 34.287 12.641 68.56 12.641s34.286-12.641 68.572-12.641c34.287 0 34.287 12.641 68.573 12.641 34.286 0 34.286-12.641 68.573-12.641 34.286 0 34.273 12.641 68.559 12.641 34.286 0 34.286-12.641 68.573-12.641 34.286 0 34.286 12.641 68.559 12.641 34.273 0 34.286-12.641 68.573-12.641 34.286 0 34.286 12.641 68.586 12.641s34.273-12.641 68.559-12.641c34.287 0 34.3 12.641 68.586 12.641 34.29 0 34.29-12.641 68.56-12.641s34.29 12.641 68.57 12.641c34.29 0 34.29-12.641 68.59-12.641 34.3 0 34.28 12.641 68.57 12.641 34.29 0 34.29-12.641 68.57-12.641 34.29 0 34.3 12.641 68.59 12.641" fill="#000"/><path d="M0 258.775c34.286 0 34.286 12.641 68.573 12.641 34.286 0 34.286-12.641 68.559-12.641 34.273 0 34.286 12.641 68.573 12.641 34.286 0 34.286-12.641 68.572-12.641 34.287 0 34.287 12.641 68.56 12.641s34.286-12.641 68.572-12.641c34.287 0 34.287 12.641 68.573 12.641 34.286 0 34.286-12.641 68.573-12.641 34.286 0 34.273 12.641 68.559 12.641 34.286 0 34.286-12.641 68.573-12.641 34.286 0 34.286 12.641 68.559 12.641 34.273 0 34.286-12.641 68.573-12.641 34.286 0 34.286 12.641 68.586 12.641s34.273-12.641 68.559-12.641c34.287 0 34.3 12.641 68.586 12.641 34.29 0 34.29-12.641 68.56-12.641s34.29 12.641 68.57 12.641c34.29 0 34.29-12.641 68.59-12.641 34.3 0 34.28 12.641 68.57 12.641 34.29 0 34.29-12.641 68.57-12.641 34.29 0 34.3 12.641 68.59 12.641" stroke="#000" stroke-width="13" stroke-miterlimit="10"/></g><g opacity=".25"><path d="M0 248.241c34.286 0 34.286 12.641 68.573 12.641 34.286 0 34.286-12.641 68.559-12.641 34.273 0 34.286 12.641 68.573 12.641 34.286 0 34.286-12.641 68.572-12.641 34.287 0 34.287 12.641 68.56 12.641s34.286-12.641 68.572-12.641c34.287 0 34.287 12.641 68.573 12.641 34.286 0 34.286-12.641 68.573-12.641 34.286 0 34.273 12.641 68.559 12.641 34.286 0 34.286-12.641 68.573-12.641 34.286 0 34.286 12.641 68.559 12.641 34.273 0 34.286-12.641 68.573-12.641 34.286 0 34.286 12.641 68.586 12.641s34.273-12.641 68.559-12.641c34.287 0 34.3 12.641 68.586 12.641 34.29 0 34.29-12.641 68.56-12.641s34.29 12.641 68.57 12.641c34.29 0 34.29-12.641 68.59-12.641 34.3 0 34.28 12.641 68.57 12.641 34.29 0 34.29-12.641 68.57-12.641 34.29 0 34.3 12.641 68.59 12.641" fill="#000"/><path d="M0 248.241c34.286 0 34.286 12.641 68.573 12.641 34.286 0 34.286-12.641 68.559-12.641 34.273 0 34.286 12.641 68.573 12.641 34.286 0 34.286-12.641 68.572-12.641 34.287 0 34.287 12.641 68.56 12.641s34.286-12.641 68.572-12.641c34.287 0 34.287 12.641 68.573 12.641 34.286 0 34.286-12.641 68.573-12.641 34.286 0 34.273 12.641 68.559 12.641 34.286 0 34.286-12.641 68.573-12.641 34.286 0 34.286 12.641 68.559 12.641 34.273 0 34.286-12.641 68.573-12.641 34.286 0 34.286 12.641 68.586 12.641s34.273-12.641 68.559-12.641c34.287 0 34.3 12.641 68.586 12.641 34.29 0 34.29-12.641 68.56-12.641s34.29 12.641 68.57 12.641c34.29 0 34.29-12.641 68.59-12.641 34.3 0 34.28 12.641 68.57 12.641 34.29 0 34.29-12.641 68.57-12.641 34.29 0 34.3 12.641 68.59 12.641" stroke="#000" stroke-width="13" stroke-miterlimit="10"/></g><g opacity=".25"><path d="M0 237.706c34.286 0 34.286 12.641 68.573 12.641 34.286 0 34.286-12.641 68.559-12.641 34.273 0 34.286 12.641 68.573 12.641 34.286 0 34.286-12.641 68.572-12.641 34.287 0 34.287 12.641 68.56 12.641s34.286-12.641 68.572-12.641c34.287 0 34.287 12.641 68.573 12.641 34.286 0 34.286-12.641 68.573-12.641 34.286 0 34.273 12.641 68.559 12.641 34.286 0 34.286-12.641 68.573-12.641 34.286 0 34.286 12.641 68.559 12.641 34.273 0 34.286-12.641 68.573-12.641 34.286 0 34.286 12.641 68.586 12.641s34.273-12.641 68.559-12.641c34.287 0 34.3 12.641 68.586 12.641 34.29 0 34.29-12.641 68.56-12.641s34.29 12.641 68.57 12.641c34.29 0 34.29-12.641 68.59-12.641 34.3 0 34.28 12.641 68.57 12.641 34.29 0 34.29-12.641 68.57-12.641 34.29 0 34.3 12.641 68.59 12.641" fill="#000"/><path d="M0 237.706c34.286 0 34.286 12.641 68.573 12.641 34.286 0 34.286-12.641 68.559-12.641 34.273 0 34.286 12.641 68.573 12.641 34.286 0 34.286-12.641 68.572-12.641 34.287 0 34.287 12.641 68.56 12.641s34.286-12.641 68.572-12.641c34.287 0 34.287 12.641 68.573 12.641 34.286 0 34.286-12.641 68.573-12.641 34.286 0 34.273 12.641 68.559 12.641 34.286 0 34.286-12.641 68.573-12.641 34.286 0 34.286 12.641 68.559 12.641 34.273 0 34.286-12.641 68.573-12.641 34.286 0 34.286 12.641 68.586 12.641s34.273-12.641 68.559-12.641c34.287 0 34.3 12.641 68.586 12.641 34.29 0 34.29-12.641 68.56-12.641s34.29 12.641 68.57 12.641c34.29 0 34.29-12.641 68.59-12.641 34.3 0 34.28 12.641 68.57 12.641 34.29 0 34.29-12.641 68.57-12.641 34.29 0 34.3 12.641 68.59 12.641" stroke="#000" stroke-width="13" stroke-miterlimit="10"/></g><g opacity=".25"><path d="M0 227.171c34.286 0 34.286 12.642 68.573 12.642 34.286 0 34.286-12.642 68.559-12.642 34.273 0 34.286 12.642 68.573 12.642 34.286 0 34.286-12.642 68.572-12.642 34.287 0 34.287 12.642 68.56 12.642s34.286-12.642 68.572-12.642c34.287 0 34.287 12.642 68.573 12.642 34.286 0 34.286-12.642 68.573-12.642 34.286 0 34.273 12.642 68.559 12.642 34.286 0 34.286-12.642 68.573-12.642 34.286 0 34.286 12.642 68.559 12.642 34.273 0 34.286-12.642 68.573-12.642 34.286 0 34.286 12.642 68.586 12.642s34.273-12.642 68.559-12.642c34.287 0 34.3 12.642 68.586 12.642 34.29 0 34.29-12.642 68.56-12.642s34.29 12.642 68.57 12.642c34.29 0 34.29-12.642 68.59-12.642 34.3 0 34.28 12.642 68.57 12.642 34.29 0 34.29-12.642 68.57-12.642 34.29 0 34.3 12.642 68.59 12.642" fill="#000"/><path d="M0 227.171c34.286 0 34.286 12.642 68.573 12.642 34.286 0 34.286-12.642 68.559-12.642 34.273 0 34.286 12.642 68.573 12.642 34.286 0 34.286-12.642 68.572-12.642 34.287 0 34.287 12.642 68.56 12.642s34.286-12.642 68.572-12.642c34.287 0 34.287 12.642 68.573 12.642 34.286 0 34.286-12.642 68.573-12.642 34.286 0 34.273 12.642 68.559 12.642 34.286 0 34.286-12.642 68.573-12.642 34.286 0 34.286 12.642 68.559 12.642 34.273 0 34.286-12.642 68.573-12.642 34.286 0 34.286 12.642 68.586 12.642s34.273-12.642 68.559-12.642c34.287 0 34.3 12.642 68.586 12.642 34.29 0 34.29-12.642 68.56-12.642s34.29 12.642 68.57 12.642c34.29 0 34.29-12.642 68.59-12.642 34.3 0 34.28 12.642 68.57 12.642 34.29 0 34.29-12.642 68.57-12.642 34.29 0 34.3 12.642 68.59 12.642" stroke="#000" stroke-width="13" stroke-miterlimit="10"/></g><g opacity=".25"><path d="M0 216.637c34.286 0 34.286 12.642 68.573 12.642 34.286 0 34.286-12.642 68.559-12.642 34.273 0 34.286 12.642 68.573 12.642 34.286 0 34.286-12.642 68.572-12.642 34.287 0 34.287 12.642 68.56 12.642s34.286-12.642 68.572-12.642c34.287 0 34.287 12.642 68.573 12.642 34.286 0 34.286-12.642 68.573-12.642 34.286 0 34.273 12.642 68.559 12.642 34.286 0 34.286-12.642 68.573-12.642 34.286 0 34.286 12.642 68.559 12.642 34.273 0 34.286-12.642 68.573-12.642 34.286 0 34.286 12.642 68.586 12.642s34.273-12.642 68.559-12.642c34.287 0 34.3 12.642 68.586 12.642 34.29 0 34.29-12.642 68.56-12.642s34.29 12.642 68.57 12.642c34.29 0 34.29-12.642 68.59-12.642 34.3 0 34.28 12.642 68.57 12.642 34.29 0 34.29-12.642 68.57-12.642 34.29 0 34.3 12.642 68.59 12.642" fill="#000"/><path d="M0 216.637c34.286 0 34.286 12.642 68.573 12.642 34.286 0 34.286-12.642 68.559-12.642 34.273 0 34.286 12.642 68.573 12.642 34.286 0 34.286-12.642 68.572-12.642 34.287 0 34.287 12.642 68.56 12.642s34.286-12.642 68.572-12.642c34.287 0 34.287 12.642 68.573 12.642 34.286 0 34.286-12.642 68.573-12.642 34.286 0 34.273 12.642 68.559 12.642 34.286 0 34.286-12.642 68.573-12.642 34.286 0 34.286 12.642 68.559 12.642 34.273 0 34.286-12.642 68.573-12.642 34.286 0 34.286 12.642 68.586 12.642s34.273-12.642 68.559-12.642c34.287 0 34.3 12.642 68.586 12.642 34.29 0 34.29-12.642 68.56-12.642s34.29 12.642 68.57 12.642c34.29 0 34.29-12.642 68.59-12.642 34.3 0 34.28 12.642 68.57 12.642 34.29 0 34.29-12.642 68.57-12.642 34.29 0 34.3 12.642 68.59 12.642" stroke="#000" stroke-width="13" stroke-miterlimit="10"/></g><g opacity=".25"><path d="M0 206.103c34.286 0 34.286 12.641 68.573 12.641 34.286 0 34.286-12.641 68.559-12.641 34.273 0 34.286 12.641 68.573 12.641 34.286 0 34.286-12.641 68.572-12.641 34.287 0 34.287 12.641 68.56 12.641s34.286-12.641 68.572-12.641c34.287 0 34.287 12.641 68.573 12.641 34.286 0 34.286-12.641 68.573-12.641 34.286 0 34.273 12.641 68.559 12.641 34.286 0 34.286-12.641 68.573-12.641 34.286 0 34.286 12.641 68.559 12.641 34.273 0 34.286-12.641 68.573-12.641 34.286 0 34.286 12.641 68.586 12.641s34.273-12.641 68.559-12.641c34.287 0 34.3 12.641 68.586 12.641 34.29 0 34.29-12.641 68.56-12.641s34.29 12.641 68.57 12.641c34.29 0 34.29-12.641 68.59-12.641 34.3 0 34.28 12.641 68.57 12.641 34.29 0 34.29-12.641 68.57-12.641 34.29 0 34.3 12.641 68.59 12.641" fill="#000"/><path d="M0 206.103c34.286 0 34.286 12.641 68.573 12.641 34.286 0 34.286-12.641 68.559-12.641 34.273 0 34.286 12.641 68.573 12.641 34.286 0 34.286-12.641 68.572-12.641 34.287 0 34.287 12.641 68.56 12.641s34.286-12.641 68.572-12.641c34.287 0 34.287 12.641 68.573 12.641 34.286 0 34.286-12.641 68.573-12.641 34.286 0 34.273 12.641 68.559 12.641 34.286 0 34.286-12.641 68.573-12.641 34.286 0 34.286 12.641 68.559 12.641 34.273 0 34.286-12.641 68.573-12.641 34.286 0 34.286 12.641 68.586 12.641s34.273-12.641 68.559-12.641c34.287 0 34.3 12.641 68.586 12.641 34.29 0 34.29-12.641 68.56-12.641s34.29 12.641 68.57 12.641c34.29 0 34.29-12.641 68.59-12.641 34.3 0 34.28 12.641 68.57 12.641 34.29 0 34.29-12.641 68.57-12.641 34.29 0 34.3 12.641 68.59 12.641" stroke="#000" stroke-width="13" stroke-miterlimit="10"/></g><g opacity=".25"><path d="M0 195.568c34.286 0 34.286 12.641 68.573 12.641 34.286 0 34.286-12.641 68.559-12.641 34.273 0 34.286 12.641 68.573 12.641 34.286 0 34.286-12.641 68.572-12.641 34.287 0 34.287 12.641 68.56 12.641s34.286-12.641 68.572-12.641c34.287 0 34.287 12.641 68.573 12.641 34.286 0 34.286-12.641 68.573-12.641 34.286 0 34.273 12.641 68.559 12.641 34.286 0 34.286-12.641 68.573-12.641 34.286 0 34.286 12.641 68.559 12.641 34.273 0 34.286-12.641 68.573-12.641 34.286 0 34.286 12.641 68.586 12.641s34.273-12.641 68.559-12.641c34.287 0 34.3 12.641 68.586 12.641 34.29 0 34.29-12.641 68.56-12.641s34.29 12.641 68.57 12.641c34.29 0 34.29-12.641 68.59-12.641 34.3 0 34.28 12.641 68.57 12.641 34.29 0 34.29-12.641 68.57-12.641 34.29 0 34.3 12.641 68.59 12.641" fill="#000"/><path d="M0 195.568c34.286 0 34.286 12.641 68.573 12.641 34.286 0 34.286-12.641 68.559-12.641 34.273 0 34.286 12.641 68.573 12.641 34.286 0 34.286-12.641 68.572-12.641 34.287 0 34.287 12.641 68.56 12.641s34.286-12.641 68.572-12.641c34.287 0 34.287 12.641 68.573 12.641 34.286 0 34.286-12.641 68.573-12.641 34.286 0 34.273 12.641 68.559 12.641 34.286 0 34.286-12.641 68.573-12.641 34.286 0 34.286 12.641 68.559 12.641 34.273 0 34.286-12.641 68.573-12.641 34.286 0 34.286 12.641 68.586 12.641s34.273-12.641 68.559-12.641c34.287 0 34.3 12.641 68.586 12.641 34.29 0 34.29-12.641 68.56-12.641s34.29 12.641 68.57 12.641c34.29 0 34.29-12.641 68.59-12.641 34.3 0 34.28 12.641 68.57 12.641 34.29 0 34.29-12.641 68.57-12.641 34.29 0 34.3 12.641 68.59 12.641" stroke="#000" stroke-width="13" stroke-miterlimit="10"/></g><g opacity=".25"><path d="M0 185.033c34.286 0 34.286 12.642 68.573 12.642 34.286 0 34.286-12.642 68.559-12.642 34.273 0 34.286 12.642 68.573 12.642 34.286 0 34.286-12.642 68.572-12.642 34.287 0 34.287 12.642 68.56 12.642s34.286-12.642 68.572-12.642c34.287 0 34.287 12.642 68.573 12.642 34.286 0 34.286-12.642 68.573-12.642 34.286 0 34.273 12.642 68.559 12.642 34.286 0 34.286-12.642 68.573-12.642 34.286 0 34.286 12.642 68.559 12.642 34.273 0 34.286-12.642 68.573-12.642 34.286 0 34.286 12.642 68.586 12.642s34.273-12.642 68.559-12.642c34.287 0 34.3 12.642 68.586 12.642 34.29 0 34.29-12.642 68.56-12.642s34.29 12.642 68.57 12.642c34.29 0 34.29-12.642 68.59-12.642 34.3 0 34.28 12.642 68.57 12.642 34.29 0 34.29-12.642 68.57-12.642 34.29 0 34.3 12.642 68.59 12.642" fill="#000"/><path d="M0 185.033c34.286 0 34.286 12.642 68.573 12.642 34.286 0 34.286-12.642 68.559-12.642 34.273 0 34.286 12.642 68.573 12.642 34.286 0 34.286-12.642 68.572-12.642 34.287 0 34.287 12.642 68.56 12.642s34.286-12.642 68.572-12.642c34.287 0 34.287 12.642 68.573 12.642 34.286 0 34.286-12.642 68.573-12.642 34.286 0 34.273 12.642 68.559 12.642 34.286 0 34.286-12.642 68.573-12.642 34.286 0 34.286 12.642 68.559 12.642 34.273 0 34.286-12.642 68.573-12.642 34.286 0 34.286 12.642 68.586 12.642s34.273-12.642 68.559-12.642c34.287 0 34.3 12.642 68.586 12.642 34.29 0 34.29-12.642 68.56-12.642s34.29 12.642 68.57 12.642c34.29 0 34.29-12.642 68.59-12.642 34.3 0 34.28 12.642 68.57 12.642 34.29 0 34.29-12.642 68.57-12.642 34.29 0 34.3 12.642 68.59 12.642" stroke="#000" stroke-width="13" stroke-miterlimit="10"/></g><g opacity=".25"><path d="M0 174.499c34.286 0 34.286 12.641 68.573 12.641 34.286 0 34.286-12.641 68.559-12.641 34.273 0 34.286 12.641 68.573 12.641 34.286 0 34.286-12.641 68.572-12.641 34.287 0 34.287 12.641 68.56 12.641s34.286-12.641 68.572-12.641c34.287 0 34.287 12.641 68.573 12.641 34.286 0 34.286-12.641 68.573-12.641 34.286 0 34.273 12.641 68.559 12.641 34.286 0 34.286-12.641 68.573-12.641 34.286 0 34.286 12.641 68.559 12.641 34.273 0 34.286-12.641 68.573-12.641 34.286 0 34.286 12.641 68.586 12.641s34.273-12.641 68.559-12.641c34.287 0 34.3 12.641 68.586 12.641 34.29 0 34.29-12.641 68.56-12.641s34.29 12.641 68.57 12.641c34.29 0 34.29-12.641 68.59-12.641 34.3 0 34.28 12.641 68.57 12.641 34.29 0 34.29-12.641 68.57-12.641 34.29 0 34.3 12.641 68.59 12.641" fill="#000"/><path d="M0 174.499c34.286 0 34.286 12.641 68.573 12.641 34.286 0 34.286-12.641 68.559-12.641 34.273 0 34.286 12.641 68.573 12.641 34.286 0 34.286-12.641 68.572-12.641 34.287 0 34.287 12.641 68.56 12.641s34.286-12.641 68.572-12.641c34.287 0 34.287 12.641 68.573 12.641 34.286 0 34.286-12.641 68.573-12.641 34.286 0 34.273 12.641 68.559 12.641 34.286 0 34.286-12.641 68.573-12.641 34.286 0 34.286 12.641 68.559 12.641 34.273 0 34.286-12.641 68.573-12.641 34.286 0 34.286 12.641 68.586 12.641s34.273-12.641 68.559-12.641c34.287 0 34.3 12.641 68.586 12.641 34.29 0 34.29-12.641 68.56-12.641s34.29 12.641 68.57 12.641c34.29 0 34.29-12.641 68.59-12.641 34.3 0 34.28 12.641 68.57 12.641 34.29 0 34.29-12.641 68.57-12.641 34.29 0 34.3 12.641 68.59 12.641" stroke="#000" stroke-width="13" stroke-miterlimit="10"/></g><g opacity=".25"><path d="M0 163.964c34.286 0 34.286 12.642 68.573 12.642 34.286 0 34.286-12.642 68.559-12.642 34.273 0 34.286 12.642 68.573 12.642 34.286 0 34.286-12.642 68.572-12.642 34.287 0 34.287 12.642 68.56 12.642s34.286-12.642 68.572-12.642c34.287 0 34.287 12.642 68.573 12.642 34.286 0 34.286-12.642 68.573-12.642 34.286 0 34.273 12.642 68.559 12.642 34.286 0 34.286-12.642 68.573-12.642 34.286 0 34.286 12.642 68.559 12.642 34.273 0 34.286-12.642 68.573-12.642 34.286 0 34.286 12.642 68.586 12.642s34.273-12.642 68.559-12.642c34.287 0 34.3 12.642 68.586 12.642 34.29 0 34.29-12.642 68.56-12.642s34.29 12.642 68.57 12.642c34.29 0 34.29-12.642 68.59-12.642 34.3 0 34.28 12.642 68.57 12.642 34.29 0 34.29-12.642 68.57-12.642 34.29 0 34.3 12.642 68.59 12.642" fill="#000"/><path d="M0 163.964c34.286 0 34.286 12.642 68.573 12.642 34.286 0 34.286-12.642 68.559-12.642 34.273 0 34.286 12.642 68.573 12.642 34.286 0 34.286-12.642 68.572-12.642 34.287 0 34.287 12.642 68.56 12.642s34.286-12.642 68.572-12.642c34.287 0 34.287 12.642 68.573 12.642 34.286 0 34.286-12.642 68.573-12.642 34.286 0 34.273 12.642 68.559 12.642 34.286 0 34.286-12.642 68.573-12.642 34.286 0 34.286 12.642 68.559 12.642 34.273 0 34.286-12.642 68.573-12.642 34.286 0 34.286 12.642 68.586 12.642s34.273-12.642 68.559-12.642c34.287 0 34.3 12.642 68.586 12.642 34.29 0 34.29-12.642 68.56-12.642s34.29 12.642 68.57 12.642c34.29 0 34.29-12.642 68.59-12.642 34.3 0 34.28 12.642 68.57 12.642 34.29 0 34.29-12.642 68.57-12.642 34.29 0 34.3 12.642 68.59 12.642" stroke="#000" stroke-width="13" stroke-miterlimit="10"/></g><g opacity=".25"><path d="M0 153.43c34.286 0 34.286 12.641 68.573 12.641 34.286 0 34.286-12.641 68.559-12.641 34.273 0 34.286 12.641 68.573 12.641 34.286 0 34.286-12.641 68.572-12.641 34.287 0 34.287 12.641 68.56 12.641s34.286-12.641 68.572-12.641c34.287 0 34.287 12.641 68.573 12.641 34.286 0 34.286-12.641 68.573-12.641 34.286 0 34.273 12.641 68.559 12.641 34.286 0 34.286-12.641 68.573-12.641 34.286 0 34.286 12.641 68.559 12.641 34.273 0 34.286-12.641 68.573-12.641 34.286 0 34.286 12.641 68.586 12.641s34.273-12.641 68.559-12.641c34.287 0 34.3 12.641 68.586 12.641 34.29 0 34.29-12.641 68.56-12.641s34.29 12.641 68.57 12.641c34.29 0 34.29-12.641 68.59-12.641 34.3 0 34.28 12.641 68.57 12.641 34.29 0 34.29-12.641 68.57-12.641 34.29 0 34.3 12.641 68.59 12.641" fill="#000"/><path d="M0 153.43c34.286 0 34.286 12.641 68.573 12.641 34.286 0 34.286-12.641 68.559-12.641 34.273 0 34.286 12.641 68.573 12.641 34.286 0 34.286-12.641 68.572-12.641 34.287 0 34.287 12.641 68.56 12.641s34.286-12.641 68.572-12.641c34.287 0 34.287 12.641 68.573 12.641 34.286 0 34.286-12.641 68.573-12.641 34.286 0 34.273 12.641 68.559 12.641 34.286 0 34.286-12.641 68.573-12.641 34.286 0 34.286 12.641 68.559 12.641 34.273 0 34.286-12.641 68.573-12.641 34.286 0 34.286 12.641 68.586 12.641s34.273-12.641 68.559-12.641c34.287 0 34.3 12.641 68.586 12.641 34.29 0 34.29-12.641 68.56-12.641s34.29 12.641 68.57 12.641c34.29 0 34.29-12.641 68.59-12.641 34.3 0 34.28 12.641 68.57 12.641 34.29 0 34.29-12.641 68.57-12.641 34.29 0 34.3 12.641 68.59 12.641" stroke="#000" stroke-width="13" stroke-miterlimit="10"/></g><g opacity=".25"><path d="M0 142.896c34.286 0 34.286 12.641 68.573 12.641 34.286 0 34.286-12.641 68.559-12.641 34.273 0 34.286 12.641 68.573 12.641 34.286 0 34.286-12.641 68.572-12.641 34.287 0 34.287 12.641 68.56 12.641s34.286-12.641 68.572-12.641c34.287 0 34.287 12.641 68.573 12.641 34.286 0 34.286-12.641 68.573-12.641 34.286 0 34.273 12.641 68.559 12.641 34.286 0 34.286-12.641 68.573-12.641 34.286 0 34.286 12.641 68.559 12.641 34.273 0 34.286-12.641 68.573-12.641 34.286 0 34.286 12.641 68.586 12.641s34.273-12.641 68.559-12.641c34.287 0 34.3 12.641 68.586 12.641 34.29 0 34.29-12.641 68.56-12.641s34.29 12.641 68.57 12.641c34.29 0 34.29-12.641 68.59-12.641 34.3 0 34.28 12.641 68.57 12.641 34.29 0 34.29-12.641 68.57-12.641 34.29 0 34.3 12.641 68.59 12.641" fill="#000"/><path d="M0 142.896c34.286 0 34.286 12.641 68.573 12.641 34.286 0 34.286-12.641 68.559-12.641 34.273 0 34.286 12.641 68.573 12.641 34.286 0 34.286-12.641 68.572-12.641 34.287 0 34.287 12.641 68.56 12.641s34.286-12.641 68.572-12.641c34.287 0 34.287 12.641 68.573 12.641 34.286 0 34.286-12.641 68.573-12.641 34.286 0 34.273 12.641 68.559 12.641 34.286 0 34.286-12.641 68.573-12.641 34.286 0 34.286 12.641 68.559 12.641 34.273 0 34.286-12.641 68.573-12.641 34.286 0 34.286 12.641 68.586 12.641s34.273-12.641 68.559-12.641c34.287 0 34.3 12.641 68.586 12.641 34.29 0 34.29-12.641 68.56-12.641s34.29 12.641 68.57 12.641c34.29 0 34.29-12.641 68.59-12.641 34.3 0 34.28 12.641 68.57 12.641 34.29 0 34.29-12.641 68.57-12.641 34.29 0 34.3 12.641 68.59 12.641" stroke="#000" stroke-width="13" stroke-miterlimit="10"/></g><g opacity=".25"><path d="M0 133.414c34.286 0 34.286 11.588 68.573 11.588 34.286 0 34.286-11.588 68.559-11.588 34.273 0 34.286 11.588 68.573 11.588 34.286 0 34.286-11.588 68.572-11.588 34.287 0 34.287 11.588 68.56 11.588s34.286-11.588 68.572-11.588c34.287 0 34.287 11.588 68.573 11.588 34.286 0 34.286-11.588 68.573-11.588 34.286 0 34.273 11.588 68.559 11.588 34.286 0 34.286-11.588 68.573-11.588 34.286 0 34.286 11.588 68.559 11.588 34.273 0 34.286-11.588 68.573-11.588 34.286 0 34.286 11.588 68.586 11.588s34.273-11.588 68.559-11.588c34.287 0 34.3 11.588 68.586 11.588 34.29 0 34.29-11.588 68.56-11.588s34.29 11.588 68.57 11.588c34.29 0 34.29-11.588 68.59-11.588 34.3 0 34.28 11.588 68.57 11.588 34.29 0 34.29-11.588 68.57-11.588 34.29 0 34.3 11.588 68.59 11.588" fill="#000"/><path d="M0 133.414c34.286 0 34.286 11.588 68.573 11.588 34.286 0 34.286-11.588 68.559-11.588 34.273 0 34.286 11.588 68.573 11.588 34.286 0 34.286-11.588 68.572-11.588 34.287 0 34.287 11.588 68.56 11.588s34.286-11.588 68.572-11.588c34.287 0 34.287 11.588 68.573 11.588 34.286 0 34.286-11.588 68.573-11.588 34.286 0 34.273 11.588 68.559 11.588 34.286 0 34.286-11.588 68.573-11.588 34.286 0 34.286 11.588 68.559 11.588 34.273 0 34.286-11.588 68.573-11.588 34.286 0 34.286 11.588 68.586 11.588s34.273-11.588 68.559-11.588c34.287 0 34.3 11.588 68.586 11.588 34.29 0 34.29-11.588 68.56-11.588s34.29 11.588 68.57 11.588c34.29 0 34.29-11.588 68.59-11.588 34.3 0 34.28 11.588 68.57 11.588 34.29 0 34.29-11.588 68.57-11.588 34.29 0 34.3 11.588 68.59 11.588" stroke="#000" stroke-width="13" stroke-miterlimit="10"/></g><g opacity=".25"><path d="M0 122.88c34.286 0 34.286 12.641 68.573 12.641 34.286 0 34.286-12.641 68.559-12.641 34.273 0 34.286 12.641 68.573 12.641 34.286 0 34.286-12.641 68.572-12.641 34.287 0 34.287 12.641 68.56 12.641s34.286-12.641 68.572-12.641c34.287 0 34.287 12.641 68.573 12.641 34.286 0 34.286-12.641 68.573-12.641 34.286 0 34.273 12.641 68.559 12.641 34.286 0 34.286-12.641 68.573-12.641 34.286 0 34.286 12.641 68.559 12.641 34.273 0 34.286-12.641 68.573-12.641 34.286 0 34.286 12.641 68.586 12.641s34.273-12.641 68.559-12.641c34.287 0 34.3 12.641 68.586 12.641 34.29 0 34.29-12.641 68.56-12.641s34.29 12.641 68.57 12.641c34.29 0 34.29-12.641 68.59-12.641 34.3 0 34.28 12.641 68.57 12.641 34.29 0 34.29-12.641 68.57-12.641 34.29 0 34.3 12.641 68.59 12.641" fill="#000"/><path d="M0 122.88c34.286 0 34.286 12.641 68.573 12.641 34.286 0 34.286-12.641 68.559-12.641 34.273 0 34.286 12.641 68.573 12.641 34.286 0 34.286-12.641 68.572-12.641 34.287 0 34.287 12.641 68.56 12.641s34.286-12.641 68.572-12.641c34.287 0 34.287 12.641 68.573 12.641 34.286 0 34.286-12.641 68.573-12.641 34.286 0 34.273 12.641 68.559 12.641 34.286 0 34.286-12.641 68.573-12.641 34.286 0 34.286 12.641 68.559 12.641 34.273 0 34.286-12.641 68.573-12.641 34.286 0 34.286 12.641 68.586 12.641s34.273-12.641 68.559-12.641c34.287 0 34.3 12.641 68.586 12.641 34.29 0 34.29-12.641 68.56-12.641s34.29 12.641 68.57 12.641c34.29 0 34.29-12.641 68.59-12.641 34.3 0 34.28 12.641 68.57 12.641 34.29 0 34.29-12.641 68.57-12.641 34.29 0 34.3 12.641 68.59 12.641" stroke="#000" stroke-width="13" stroke-miterlimit="10"/></g><g opacity=".25"><path d="M0 112.345c34.286 0 34.286 12.642 68.573 12.642 34.286 0 34.286-12.642 68.559-12.642 34.273 0 34.286 12.642 68.573 12.642 34.286 0 34.286-12.642 68.572-12.642 34.287 0 34.287 12.642 68.56 12.642s34.286-12.642 68.572-12.642c34.287 0 34.287 12.642 68.573 12.642 34.286 0 34.286-12.642 68.573-12.642 34.286 0 34.273 12.642 68.559 12.642 34.286 0 34.286-12.642 68.573-12.642 34.286 0 34.286 12.642 68.559 12.642 34.273 0 34.286-12.642 68.573-12.642 34.286 0 34.286 12.642 68.586 12.642s34.273-12.642 68.559-12.642c34.287 0 34.3 12.642 68.586 12.642 34.29 0 34.29-12.642 68.56-12.642s34.29 12.642 68.57 12.642c34.29 0 34.29-12.642 68.59-12.642 34.3 0 34.28 12.642 68.57 12.642 34.29 0 34.29-12.642 68.57-12.642 34.29 0 34.3 12.642 68.59 12.642" fill="#000"/><path d="M0 112.345c34.286 0 34.286 12.642 68.573 12.642 34.286 0 34.286-12.642 68.559-12.642 34.273 0 34.286 12.642 68.573 12.642 34.286 0 34.286-12.642 68.572-12.642 34.287 0 34.287 12.642 68.56 12.642s34.286-12.642 68.572-12.642c34.287 0 34.287 12.642 68.573 12.642 34.286 0 34.286-12.642 68.573-12.642 34.286 0 34.273 12.642 68.559 12.642 34.286 0 34.286-12.642 68.573-12.642 34.286 0 34.286 12.642 68.559 12.642 34.273 0 34.286-12.642 68.573-12.642 34.286 0 34.286 12.642 68.586 12.642s34.273-12.642 68.559-12.642c34.287 0 34.3 12.642 68.586 12.642 34.29 0 34.29-12.642 68.56-12.642s34.29 12.642 68.57 12.642c34.29 0 34.29-12.642 68.59-12.642 34.3 0 34.28 12.642 68.57 12.642 34.29 0 34.29-12.642 68.57-12.642 34.29 0 34.3 12.642 68.59 12.642" stroke="#000" stroke-width="13" stroke-miterlimit="10"/></g><g opacity=".25"><path d="M0 101.811c34.286 0 34.286 12.641 68.573 12.641 34.286 0 34.286-12.641 68.559-12.641 34.273 0 34.286 12.641 68.573 12.641 34.286 0 34.286-12.641 68.572-12.641 34.287 0 34.287 12.641 68.56 12.641s34.286-12.641 68.572-12.641c34.287 0 34.287 12.641 68.573 12.641 34.286 0 34.286-12.641 68.573-12.641 34.286 0 34.273 12.641 68.559 12.641 34.286 0 34.286-12.641 68.573-12.641 34.286 0 34.286 12.641 68.559 12.641 34.273 0 34.286-12.641 68.573-12.641 34.286 0 34.286 12.641 68.586 12.641s34.273-12.641 68.559-12.641c34.287 0 34.3 12.641 68.586 12.641 34.29 0 34.29-12.641 68.56-12.641s34.29 12.641 68.57 12.641c34.29 0 34.29-12.641 68.59-12.641 34.3 0 34.28 12.641 68.57 12.641 34.29 0 34.29-12.641 68.57-12.641 34.29 0 34.3 12.641 68.59 12.641" fill="#000"/><path d="M0 101.811c34.286 0 34.286 12.641 68.573 12.641 34.286 0 34.286-12.641 68.559-12.641 34.273 0 34.286 12.641 68.573 12.641 34.286 0 34.286-12.641 68.572-12.641 34.287 0 34.287 12.641 68.56 12.641s34.286-12.641 68.572-12.641c34.287 0 34.287 12.641 68.573 12.641 34.286 0 34.286-12.641 68.573-12.641 34.286 0 34.273 12.641 68.559 12.641 34.286 0 34.286-12.641 68.573-12.641 34.286 0 34.286 12.641 68.559 12.641 34.273 0 34.286-12.641 68.573-12.641 34.286 0 34.286 12.641 68.586 12.641s34.273-12.641 68.559-12.641c34.287 0 34.3 12.641 68.586 12.641 34.29 0 34.29-12.641 68.56-12.641s34.29 12.641 68.57 12.641c34.29 0 34.29-12.641 68.59-12.641 34.3 0 34.28 12.641 68.57 12.641 34.29 0 34.29-12.641 68.57-12.641 34.29 0 34.3 12.641 68.59 12.641" stroke="#000" stroke-width="13" stroke-miterlimit="10"/></g><g opacity=".25"><path d="M0 91.276c34.286 0 34.286 12.642 68.573 12.642 34.286 0 34.286-12.642 68.559-12.642 34.273 0 34.286 12.642 68.573 12.642 34.286 0 34.286-12.642 68.572-12.642 34.287 0 34.287 12.642 68.56 12.642s34.286-12.642 68.572-12.642c34.287 0 34.287 12.642 68.573 12.642 34.286 0 34.286-12.642 68.573-12.642 34.286 0 34.273 12.642 68.559 12.642 34.286 0 34.286-12.642 68.573-12.642 34.286 0 34.286 12.642 68.559 12.642 34.273 0 34.286-12.642 68.573-12.642 34.286 0 34.286 12.642 68.586 12.642s34.273-12.642 68.559-12.642c34.287 0 34.3 12.642 68.586 12.642 34.29 0 34.29-12.642 68.56-12.642s34.29 12.642 68.57 12.642c34.29 0 34.29-12.642 68.59-12.642 34.3 0 34.28 12.642 68.57 12.642 34.29 0 34.29-12.642 68.57-12.642 34.29 0 34.3 12.642 68.59 12.642" fill="#000"/><path d="M0 91.276c34.286 0 34.286 12.642 68.573 12.642 34.286 0 34.286-12.642 68.559-12.642 34.273 0 34.286 12.642 68.573 12.642 34.286 0 34.286-12.642 68.572-12.642 34.287 0 34.287 12.642 68.56 12.642s34.286-12.642 68.572-12.642c34.287 0 34.287 12.642 68.573 12.642 34.286 0 34.286-12.642 68.573-12.642 34.286 0 34.273 12.642 68.559 12.642 34.286 0 34.286-12.642 68.573-12.642 34.286 0 34.286 12.642 68.559 12.642 34.273 0 34.286-12.642 68.573-12.642 34.286 0 34.286 12.642 68.586 12.642s34.273-12.642 68.559-12.642c34.287 0 34.3 12.642 68.586 12.642 34.29 0 34.29-12.642 68.56-12.642s34.29 12.642 68.57 12.642c34.29 0 34.29-12.642 68.59-12.642 34.3 0 34.28 12.642 68.57 12.642 34.29 0 34.29-12.642 68.57-12.642 34.29 0 34.3 12.642 68.59 12.642" stroke="#000" stroke-width="13" stroke-miterlimit="10"/></g><g opacity=".25"><path d="M0 80.742c34.286 0 34.286 12.641 68.573 12.641 34.286 0 34.286-12.641 68.559-12.641 34.273 0 34.286 12.641 68.573 12.641 34.286 0 34.286-12.641 68.572-12.641 34.287 0 34.287 12.641 68.56 12.641s34.286-12.641 68.572-12.641c34.287 0 34.287 12.641 68.573 12.641 34.286 0 34.286-12.641 68.573-12.641 34.286 0 34.273 12.641 68.559 12.641 34.286 0 34.286-12.641 68.573-12.641 34.286 0 34.286 12.641 68.559 12.641 34.273 0 34.286-12.641 68.573-12.641 34.286 0 34.286 12.641 68.586 12.641s34.273-12.641 68.559-12.641c34.287 0 34.3 12.641 68.586 12.641 34.29 0 34.29-12.641 68.56-12.641s34.29 12.641 68.57 12.641c34.29 0 34.29-12.641 68.59-12.641 34.3 0 34.28 12.641 68.57 12.641 34.29 0 34.29-12.641 68.57-12.641 34.29 0 34.3 12.641 68.59 12.641" fill="#000"/><path d="M0 80.742c34.286 0 34.286 12.641 68.573 12.641 34.286 0 34.286-12.641 68.559-12.641 34.273 0 34.286 12.641 68.573 12.641 34.286 0 34.286-12.641 68.572-12.641 34.287 0 34.287 12.641 68.56 12.641s34.286-12.641 68.572-12.641c34.287 0 34.287 12.641 68.573 12.641 34.286 0 34.286-12.641 68.573-12.641 34.286 0 34.273 12.641 68.559 12.641 34.286 0 34.286-12.641 68.573-12.641 34.286 0 34.286 12.641 68.559 12.641 34.273 0 34.286-12.641 68.573-12.641 34.286 0 34.286 12.641 68.586 12.641s34.273-12.641 68.559-12.641c34.287 0 34.3 12.641 68.586 12.641 34.29 0 34.29-12.641 68.56-12.641s34.29 12.641 68.57 12.641c34.29 0 34.29-12.641 68.59-12.641 34.3 0 34.28 12.641 68.57 12.641 34.29 0 34.29-12.641 68.57-12.641 34.29 0 34.3 12.641 68.59 12.641" stroke="#000" stroke-width="13" stroke-miterlimit="10"/></g><g opacity=".25"><path d="M0 70.207c34.286 0 34.286 12.642 68.573 12.642 34.286 0 34.286-12.642 68.559-12.642 34.273 0 34.286 12.642 68.573 12.642 34.286 0 34.286-12.642 68.572-12.642 34.287 0 34.287 12.642 68.56 12.642s34.286-12.642 68.572-12.642c34.287 0 34.287 12.642 68.573 12.642 34.286 0 34.286-12.642 68.573-12.642 34.286 0 34.273 12.642 68.559 12.642 34.286 0 34.286-12.642 68.573-12.642 34.286 0 34.286 12.642 68.559 12.642 34.273 0 34.286-12.642 68.573-12.642 34.286 0 34.286 12.642 68.586 12.642s34.273-12.642 68.559-12.642c34.287 0 34.3 12.642 68.586 12.642 34.29 0 34.29-12.642 68.56-12.642s34.29 12.642 68.57 12.642c34.29 0 34.29-12.642 68.59-12.642 34.3 0 34.28 12.642 68.57 12.642 34.29 0 34.29-12.642 68.57-12.642 34.29 0 34.3 12.642 68.59 12.642" fill="#000"/><path d="M0 70.207c34.286 0 34.286 12.642 68.573 12.642 34.286 0 34.286-12.642 68.559-12.642 34.273 0 34.286 12.642 68.573 12.642 34.286 0 34.286-12.642 68.572-12.642 34.287 0 34.287 12.642 68.56 12.642s34.286-12.642 68.572-12.642c34.287 0 34.287 12.642 68.573 12.642 34.286 0 34.286-12.642 68.573-12.642 34.286 0 34.273 12.642 68.559 12.642 34.286 0 34.286-12.642 68.573-12.642 34.286 0 34.286 12.642 68.559 12.642 34.273 0 34.286-12.642 68.573-12.642 34.286 0 34.286 12.642 68.586 12.642s34.273-12.642 68.559-12.642c34.287 0 34.3 12.642 68.586 12.642 34.29 0 34.29-12.642 68.56-12.642s34.29 12.642 68.57 12.642c34.29 0 34.29-12.642 68.59-12.642 34.3 0 34.28 12.642 68.57 12.642 34.29 0 34.29-12.642 68.57-12.642 34.29 0 34.3 12.642 68.59 12.642" stroke="#000" stroke-width="13" stroke-miterlimit="10"/></g><g opacity=".25"><path d="M0 59.673c34.286 0 34.286 12.641 68.573 12.641 34.286 0 34.286-12.641 68.559-12.641 34.273 0 34.286 12.641 68.573 12.641 34.286 0 34.286-12.641 68.572-12.641 34.287 0 34.287 12.641 68.56 12.641s34.286-12.641 68.572-12.641c34.287 0 34.287 12.641 68.573 12.641 34.286 0 34.286-12.641 68.573-12.641 34.286 0 34.273 12.641 68.559 12.641 34.286 0 34.286-12.641 68.573-12.641 34.286 0 34.286 12.641 68.559 12.641 34.273 0 34.286-12.641 68.573-12.641 34.286 0 34.286 12.641 68.586 12.641s34.273-12.641 68.559-12.641c34.287 0 34.3 12.641 68.586 12.641 34.29 0 34.29-12.641 68.56-12.641s34.29 12.641 68.57 12.641c34.29 0 34.29-12.641 68.59-12.641 34.3 0 34.28 12.641 68.57 12.641 34.29 0 34.29-12.641 68.57-12.641 34.29 0 34.3 12.641 68.59 12.641" fill="#000"/><path d="M0 59.673c34.286 0 34.286 12.641 68.573 12.641 34.286 0 34.286-12.641 68.559-12.641 34.273 0 34.286 12.641 68.573 12.641 34.286 0 34.286-12.641 68.572-12.641 34.287 0 34.287 12.641 68.56 12.641s34.286-12.641 68.572-12.641c34.287 0 34.287 12.641 68.573 12.641 34.286 0 34.286-12.641 68.573-12.641 34.286 0 34.273 12.641 68.559 12.641 34.286 0 34.286-12.641 68.573-12.641 34.286 0 34.286 12.641 68.559 12.641 34.273 0 34.286-12.641 68.573-12.641 34.286 0 34.286 12.641 68.586 12.641s34.273-12.641 68.559-12.641c34.287 0 34.3 12.641 68.586 12.641 34.29 0 34.29-12.641 68.56-12.641s34.29 12.641 68.57 12.641c34.29 0 34.29-12.641 68.59-12.641 34.3 0 34.28 12.641 68.57 12.641 34.29 0 34.29-12.641 68.57-12.641 34.29 0 34.3 12.641 68.59 12.641" stroke="#000" stroke-width="13" stroke-miterlimit="10"/></g><g opacity=".25"><path d="M0 49.138c34.286 0 34.286 12.642 68.573 12.642 34.286 0 34.286-12.642 68.559-12.642 34.273 0 34.286 12.642 68.573 12.642 34.286 0 34.286-12.642 68.572-12.642 34.287 0 34.287 12.642 68.56 12.642s34.286-12.642 68.572-12.642c34.287 0 34.287 12.642 68.573 12.642 34.286 0 34.286-12.642 68.573-12.642 34.286 0 34.273 12.642 68.559 12.642 34.286 0 34.286-12.642 68.573-12.642 34.286 0 34.286 12.642 68.559 12.642 34.273 0 34.286-12.642 68.573-12.642 34.286 0 34.286 12.642 68.586 12.642s34.273-12.642 68.559-12.642c34.287 0 34.3 12.642 68.586 12.642 34.29 0 34.29-12.642 68.56-12.642s34.29 12.642 68.57 12.642c34.29 0 34.29-12.642 68.59-12.642 34.3 0 34.28 12.642 68.57 12.642 34.29 0 34.29-12.642 68.57-12.642 34.29 0 34.3 12.642 68.59 12.642" fill="#000"/><path d="M0 49.138c34.286 0 34.286 12.642 68.573 12.642 34.286 0 34.286-12.642 68.559-12.642 34.273 0 34.286 12.642 68.573 12.642 34.286 0 34.286-12.642 68.572-12.642 34.287 0 34.287 12.642 68.56 12.642s34.286-12.642 68.572-12.642c34.287 0 34.287 12.642 68.573 12.642 34.286 0 34.286-12.642 68.573-12.642 34.286 0 34.273 12.642 68.559 12.642 34.286 0 34.286-12.642 68.573-12.642 34.286 0 34.286 12.642 68.559 12.642 34.273 0 34.286-12.642 68.573-12.642 34.286 0 34.286 12.642 68.586 12.642s34.273-12.642 68.559-12.642c34.287 0 34.3 12.642 68.586 12.642 34.29 0 34.29-12.642 68.56-12.642s34.29 12.642 68.57 12.642c34.29 0 34.29-12.642 68.59-12.642 34.3 0 34.28 12.642 68.57 12.642 34.29 0 34.29-12.642 68.57-12.642 34.29 0 34.3 12.642 68.59 12.642" stroke="#000" stroke-width="13" stroke-miterlimit="10"/></g><g opacity=".25"><path d="M0 38.603c34.286 0 34.286 12.642 68.573 12.642 34.286 0 34.286-12.642 68.559-12.642 34.273 0 34.286 12.642 68.573 12.642 34.286 0 34.286-12.642 68.572-12.642 34.287 0 34.287 12.642 68.56 12.642s34.286-12.642 68.572-12.642c34.287 0 34.287 12.642 68.573 12.642 34.286 0 34.286-12.642 68.573-12.642 34.286 0 34.273 12.642 68.559 12.642 34.286 0 34.286-12.642 68.573-12.642 34.286 0 34.286 12.642 68.559 12.642 34.273 0 34.286-12.642 68.573-12.642 34.286 0 34.286 12.642 68.586 12.642s34.273-12.642 68.559-12.642c34.287 0 34.3 12.642 68.586 12.642 34.29 0 34.29-12.642 68.56-12.642s34.29 12.642 68.57 12.642c34.29 0 34.29-12.642 68.59-12.642 34.3 0 34.28 12.642 68.57 12.642 34.29 0 34.29-12.642 68.57-12.642 34.29 0 34.3 12.642 68.59 12.642" fill="#000"/><path d="M0 38.603c34.286 0 34.286 12.642 68.573 12.642 34.286 0 34.286-12.642 68.559-12.642 34.273 0 34.286 12.642 68.573 12.642 34.286 0 34.286-12.642 68.572-12.642 34.287 0 34.287 12.642 68.56 12.642s34.286-12.642 68.572-12.642c34.287 0 34.287 12.642 68.573 12.642 34.286 0 34.286-12.642 68.573-12.642 34.286 0 34.273 12.642 68.559 12.642 34.286 0 34.286-12.642 68.573-12.642 34.286 0 34.286 12.642 68.559 12.642 34.273 0 34.286-12.642 68.573-12.642 34.286 0 34.286 12.642 68.586 12.642s34.273-12.642 68.559-12.642c34.287 0 34.3 12.642 68.586 12.642 34.29 0 34.29-12.642 68.56-12.642s34.29 12.642 68.57 12.642c34.29 0 34.29-12.642 68.59-12.642 34.3 0 34.28 12.642 68.57 12.642 34.29 0 34.29-12.642 68.57-12.642 34.29 0 34.3 12.642 68.59 12.642" stroke="#000" stroke-width="13" stroke-miterlimit="10"/></g><g opacity=".25"><path d="M0 28.069c34.286 0 34.286 12.641 68.573 12.641 34.286 0 34.286-12.641 68.559-12.641 34.273 0 34.286 12.641 68.573 12.641 34.286 0 34.286-12.641 68.572-12.641 34.287 0 34.287 12.641 68.56 12.641s34.286-12.641 68.572-12.641c34.287 0 34.287 12.641 68.573 12.641 34.286 0 34.286-12.641 68.573-12.641 34.286 0 34.273 12.641 68.559 12.641 34.286 0 34.286-12.641 68.573-12.641 34.286 0 34.286 12.641 68.559 12.641 34.273 0 34.286-12.641 68.573-12.641 34.286 0 34.286 12.641 68.586 12.641s34.273-12.641 68.559-12.641c34.287 0 34.3 12.641 68.586 12.641 34.29 0 34.29-12.641 68.56-12.641s34.29 12.641 68.57 12.641c34.29 0 34.29-12.641 68.59-12.641 34.3 0 34.28 12.641 68.57 12.641 34.29 0 34.29-12.641 68.57-12.641 34.29 0 34.3 12.641 68.59 12.641" fill="#000"/><path d="M0 28.069c34.286 0 34.286 12.641 68.573 12.641 34.286 0 34.286-12.641 68.559-12.641 34.273 0 34.286 12.641 68.573 12.641 34.286 0 34.286-12.641 68.572-12.641 34.287 0 34.287 12.641 68.56 12.641s34.286-12.641 68.572-12.641c34.287 0 34.287 12.641 68.573 12.641 34.286 0 34.286-12.641 68.573-12.641 34.286 0 34.273 12.641 68.559 12.641 34.286 0 34.286-12.641 68.573-12.641 34.286 0 34.286 12.641 68.559 12.641 34.273 0 34.286-12.641 68.573-12.641 34.286 0 34.286 12.641 68.586 12.641s34.273-12.641 68.559-12.641c34.287 0 34.3 12.641 68.586 12.641 34.29 0 34.29-12.641 68.56-12.641s34.29 12.641 68.57 12.641c34.29 0 34.29-12.641 68.59-12.641 34.3 0 34.28 12.641 68.57 12.641 34.29 0 34.29-12.641 68.57-12.641 34.29 0 34.3 12.641 68.59 12.641" stroke="#000" stroke-width="13" stroke-miterlimit="10"/></g><g opacity=".25"><path d="M0 17.535c34.286 0 34.286 12.641 68.573 12.641 34.286 0 34.286-12.641 68.559-12.641 34.273 0 34.286 12.641 68.573 12.641 34.286 0 34.286-12.641 68.572-12.641 34.287 0 34.287 12.641 68.56 12.641s34.286-12.641 68.572-12.641c34.287 0 34.287 12.641 68.573 12.641 34.286 0 34.286-12.641 68.573-12.641 34.286 0 34.273 12.641 68.559 12.641 34.286 0 34.286-12.641 68.573-12.641 34.286 0 34.286 12.641 68.559 12.641 34.273 0 34.286-12.641 68.573-12.641 34.286 0 34.286 12.641 68.586 12.641s34.273-12.641 68.559-12.641c34.287 0 34.3 12.641 68.586 12.641 34.29 0 34.29-12.641 68.56-12.641s34.29 12.641 68.57 12.641c34.29 0 34.29-12.641 68.59-12.641 34.3 0 34.28 12.641 68.57 12.641 34.29 0 34.29-12.641 68.57-12.641 34.29 0 34.3 12.641 68.59 12.641" fill="#000"/><path d="M0 17.535c34.286 0 34.286 12.641 68.573 12.641 34.286 0 34.286-12.641 68.559-12.641 34.273 0 34.286 12.641 68.573 12.641 34.286 0 34.286-12.641 68.572-12.641 34.287 0 34.287 12.641 68.56 12.641s34.286-12.641 68.572-12.641c34.287 0 34.287 12.641 68.573 12.641 34.286 0 34.286-12.641 68.573-12.641 34.286 0 34.273 12.641 68.559 12.641 34.286 0 34.286-12.641 68.573-12.641 34.286 0 34.286 12.641 68.559 12.641 34.273 0 34.286-12.641 68.573-12.641 34.286 0 34.286 12.641 68.586 12.641s34.273-12.641 68.559-12.641c34.287 0 34.3 12.641 68.586 12.641 34.29 0 34.29-12.641 68.56-12.641s34.29 12.641 68.57 12.641c34.29 0 34.29-12.641 68.59-12.641 34.3 0 34.28 12.641 68.57 12.641 34.29 0 34.29-12.641 68.57-12.641 34.29 0 34.3 12.641 68.59 12.641" stroke="#000" stroke-width="13" stroke-miterlimit="10"/></g><g opacity=".25"><path d="M0 7c34.286 0 34.286 12.641 68.573 12.641C102.859 19.641 102.859 7 137.132 7c34.273 0 34.286 12.641 68.573 12.641C239.991 19.641 239.991 7 274.277 7c34.287 0 34.287 12.641 68.56 12.641S377.123 7 411.409 7c34.287 0 34.287 12.641 68.573 12.641C514.268 19.641 514.268 7 548.555 7c34.286 0 34.273 12.641 68.559 12.641C651.4 19.641 651.4 7 685.687 7c34.286 0 34.286 12.641 68.559 12.641C788.519 19.641 788.532 7 822.819 7c34.286 0 34.286 12.641 68.586 12.641S925.678 7 959.964 7c34.287 0 34.3 12.641 68.586 12.641 34.29 0 34.29-12.641 68.56-12.641s34.29 12.641 68.57 12.641c34.29 0 34.29-12.641 68.59-12.641 34.3 0 34.28 12.641 68.57 12.641 34.29 0 34.29-12.641 68.57-12.641 34.29 0 34.3 12.641 68.59 12.641" fill="#000"/><path d="M0 7c34.286 0 34.286 12.641 68.573 12.641C102.859 19.641 102.859 7 137.132 7c34.273 0 34.286 12.641 68.573 12.641C239.991 19.641 239.991 7 274.277 7c34.287 0 34.287 12.641 68.56 12.641S377.123 7 411.409 7c34.287 0 34.287 12.641 68.573 12.641C514.268 19.641 514.268 7 548.555 7c34.286 0 34.273 12.641 68.559 12.641C651.4 19.641 651.4 7 685.687 7c34.286 0 34.286 12.641 68.559 12.641C788.519 19.641 788.532 7 822.819 7c34.286 0 34.286 12.641 68.586 12.641S925.678 7 959.964 7c34.287 0 34.3 12.641 68.586 12.641 34.29 0 34.29-12.641 68.56-12.641s34.29 12.641 68.57 12.641c34.29 0 34.29-12.641 68.59-12.641 34.3 0 34.28 12.641 68.57 12.641 34.29 0 34.29-12.641 68.57-12.641 34.29 0 34.3 12.641 68.59 12.641" stroke="#000" stroke-width="13" stroke-miterlimit="10"/></g></g></svg>